<?xml version="1.0" encoding="utf-8" standalone="no"?>
<!DOCTYPE svg PUBLIC "-//W3C//DTD SVG 1.1//EN"
  "http://www.w3.org/Graphics/SVG/1.1/DTD/svg11.dtd">
<svg height="1143.754688pt" version="1.1" viewBox="0 0 712.440625 1143.754688" width="712.440625pt" xmlns="http://www.w3.org/2000/svg" xmlns:xlink="http://www.w3.org/1999/xlink">
 <metadata>
  <rdf:RDF xmlns:cc="http://creativecommons.org/ns#" xmlns:dc="http://purl.org/dc/elements/1.1/" xmlns:rdf="http://www.w3.org/1999/02/22-rdf-syntax-ns#">
   <cc:Work>
    <dc:type rdf:resource="http://purl.org/dc/dcmitype/StillImage"/>
    <dc:date>2021-11-17T14:21:14.604940</dc:date>
    <dc:format>image/svg+xml</dc:format>
    <dc:creator>
     <cc:Agent>
      <dc:title>Matplotlib v3.4.2, https://matplotlib.org/</dc:title>
     </cc:Agent>
    </dc:creator>
   </cc:Work>
  </rdf:RDF>
 </metadata>
 <defs>
  <style type="text/css">*{stroke-linecap:butt;stroke-linejoin:round;}</style>
 </defs>
 <g id="figure_1">
  <g id="patch_1">
   <path d="M 0 1143.754688 
L 712.440625 1143.754688 
L 712.440625 0 
L 0 0 
z
" style="fill:none;"/>
  </g>
  <g id="axes_1">
   <g id="patch_2">
    <path d="M 46.965625 260.798437 
L 368.953125 260.798437 
L 368.953125 20.798438 
L 46.965625 20.798438 
z
" style="fill:#ffffff;"/>
   </g>
   <g id="PolyCollection_1">
    <path clip-path="url(#p1de823ccca)" d="M 61.602449 247.678668 
L 61.602449 247.678668 
L 61.613073 199.089899 
L 61.662423 206.37785 
L 61.70869 218.524435 
L 61.766951 206.37785 
L 61.766951 206.37785 
L 61.766951 206.37785 
L 61.70869 218.524435 
L 61.662423 206.37785 
L 61.613073 199.089899 
L 61.602449 247.678668 
z
" style="fill:#1f77b4;fill-opacity:0.2;stroke:#1f77b4;stroke-opacity:0.2;"/>
    <path clip-path="url(#p1de823ccca)" d="M 62.02193 213.665801 
L 62.02193 213.665801 
L 62.098012 246.46158 
L 62.140851 169.938095 
L 62.867403 182.325182 
L 62.98701 246.704512 
L 62.98701 246.704512 
L 62.98701 246.704512 
L 62.867403 182.325182 
L 62.140851 169.938095 
L 62.098012 246.46158 
L 62.02193 213.665801 
z
" style="fill:#1f77b4;fill-opacity:0.2;stroke:#1f77b4;stroke-opacity:0.2;"/>
    <path clip-path="url(#p1de823ccca)" d="M 63.183385 245.246922 
L 63.183385 245.246922 
L 63.511019 167.508778 
L 63.597726 182.08468 
L 63.862643 31.707528 
L 63.862643 31.707528 
L 63.862643 31.707528 
L 63.597726 182.08468 
L 63.511019 167.508778 
L 63.183385 245.246922 
z
" style="fill:#1f77b4;fill-opacity:0.2;stroke:#1f77b4;stroke-opacity:0.2;"/>
    <path clip-path="url(#p1de823ccca)" d="M 64.88667 186.659084 
L 64.88667 186.659084 
L 65.228013 220.953752 
L 65.228013 220.953752 
L 65.228013 220.953752 
L 64.88667 186.659084 
z
" style="fill:#1f77b4;fill-opacity:0.2;stroke:#1f77b4;stroke-opacity:0.2;"/>
    <path clip-path="url(#p1de823ccca)" d="M 65.399712 245.489854 
L 65.399712 245.489854 
L 65.399712 245.489854 
L 65.399712 245.489854 
z
" style="fill:#1f77b4;fill-opacity:0.2;stroke:#1f77b4;stroke-opacity:0.2;"/>
    <path clip-path="url(#p1de823ccca)" d="M 66.047098 177.235763 
L 66.047098 177.235763 
L 67.430974 245.516576 
L 67.487179 211.236484 
L 67.749012 245.975717 
L 68.825475 225.812386 
L 68.929317 246.947444 
L 68.991005 247.06891 
L 69.555111 219.739093 
L 69.555111 219.739093 
L 69.555111 219.739093 
L 68.991005 247.06891 
L 68.929317 246.947444 
L 68.825475 225.812386 
L 67.749012 245.975717 
L 67.487179 184.513997 
L 67.430974 245.516576 
L 66.047098 177.235763 
z
" style="fill:#1f77b4;fill-opacity:0.2;stroke:#1f77b4;stroke-opacity:0.2;"/>
    <path clip-path="url(#p1de823ccca)" d="M 69.737435 201.519216 
L 69.737435 201.519216 
L 69.737435 201.519216 
L 69.737435 201.519216 
z
" style="fill:#1f77b4;fill-opacity:0.2;stroke:#1f77b4;stroke-opacity:0.2;"/>
    <path clip-path="url(#p1de823ccca)" d="M 73.20398 248.164532 
L 73.20398 248.164532 
L 73.313648 245.25178 
L 73.847596 245.489854 
L 73.988108 228.241703 
L 73.988108 228.241703 
L 73.988108 228.241703 
L 73.847596 245.489854 
L 73.313648 245.25178 
L 73.20398 248.164532 
z
" style="fill:#1f77b4;fill-opacity:0.2;stroke:#1f77b4;stroke-opacity:0.2;"/>
    <path clip-path="url(#p1de823ccca)" d="M 75.174582 242.08881 
L 75.174582 242.08881 
L 75.250664 243.789332 
L 76.232881 225.812386 
L 76.462156 240.993188 
L 76.71028 177.466548 
L 76.71028 163.473682 
L 76.71028 163.473682 
L 76.462156 240.993188 
L 76.232881 218.524435 
L 75.250664 243.789332 
L 75.174582 242.08881 
z
" style="fill:#1f77b4;fill-opacity:0.2;stroke:#1f77b4;stroke-opacity:0.2;"/>
    <path clip-path="url(#p1de823ccca)" d="M 77.895726 220.953752 
L 77.895726 220.953752 
L 77.895726 220.953752 
L 77.895726 220.953752 
z
" style="fill:#1f77b4;fill-opacity:0.2;stroke:#1f77b4;stroke-opacity:0.2;"/>
    <path clip-path="url(#p1de823ccca)" d="M 80.141869 162.5385 
L 80.141869 198.212474 
L 80.686098 208.804738 
L 80.686098 208.804738 
L 80.686098 208.804738 
L 80.141869 162.5385 
z
" style="fill:#1f77b4;fill-opacity:0.2;stroke:#1f77b4;stroke-opacity:0.2;"/>
    <path clip-path="url(#p1de823ccca)" d="M 88.551711 235.529654 
L 88.551711 235.529654 
L 90.311201 216.095118 
L 90.311201 216.095118 
L 90.311201 216.095118 
L 88.551711 235.529654 
z
" style="fill:#1f77b4;fill-opacity:0.2;stroke:#1f77b4;stroke-opacity:0.2;"/>
    <path clip-path="url(#p1de823ccca)" d="M 94.180778 211.476986 
L 94.180778 211.476986 
L 95.967685 228.241703 
L 95.968028 228.241703 
L 99.534302 218.524435 
L 99.865021 241.602946 
L 99.865021 234.314995 
L 99.865021 234.314995 
L 99.534302 218.524435 
L 95.968028 228.241703 
L 95.967685 228.241703 
L 94.180778 211.476986 
z
" style="fill:#1f77b4;fill-opacity:0.2;stroke:#1f77b4;stroke-opacity:0.2;"/>
    <path clip-path="url(#p1de823ccca)" d="M 128.055934 237.958971 
L 128.055934 237.958971 
L 137.755064 230.67102 
L 153.386904 239.173629 
L 153.386904 238.132493 
L 153.386904 238.132493 
L 137.755064 230.67102 
L 128.055934 237.958971 
z
" style="fill:#1f77b4;fill-opacity:0.2;stroke:#1f77b4;stroke-opacity:0.2;"/>
    <path clip-path="url(#p1de823ccca)" d="M 197.257637 235.529654 
L 197.257637 235.529654 
L 197.257637 235.529654 
L 197.257637 235.529654 
z
" style="fill:#1f77b4;fill-opacity:0.2;stroke:#1f77b4;stroke-opacity:0.2;"/>
    <path clip-path="url(#p1de823ccca)" d="M 354.31733 241.602946 
L 354.31733 241.602946 
L 354.31733 241.602946 
L 354.31733 241.602946 
z
" style="fill:#1f77b4;fill-opacity:0.2;stroke:#1f77b4;stroke-opacity:0.2;"/>
   </g>
   <g id="matplotlib.axis_1">
    <g id="xtick_1">
     <g id="line2d_1">
      <defs>
       <path d="M 0 0 
L 0 3.5 
" id="m7b842ca2a7" style="stroke:#000000;stroke-width:0.8;"/>
      </defs>
      <g>
       <use style="stroke:#000000;stroke-width:0.8;" x="61.601078" xlink:href="#m7b842ca2a7" y="260.798437"/>
      </g>
     </g>
    </g>
    <g id="xtick_2">
     <g id="line2d_2">
      <g>
       <use style="stroke:#000000;stroke-width:0.8;" x="130.143743" xlink:href="#m7b842ca2a7" y="260.798437"/>
      </g>
     </g>
    </g>
    <g id="xtick_3">
     <g id="line2d_3">
      <g>
       <use style="stroke:#000000;stroke-width:0.8;" x="198.686409" xlink:href="#m7b842ca2a7" y="260.798437"/>
      </g>
     </g>
    </g>
    <g id="xtick_4">
     <g id="line2d_4">
      <g>
       <use style="stroke:#000000;stroke-width:0.8;" x="267.229075" xlink:href="#m7b842ca2a7" y="260.798437"/>
      </g>
     </g>
    </g>
    <g id="xtick_5">
     <g id="line2d_5">
      <g>
       <use style="stroke:#000000;stroke-width:0.8;" x="335.77174" xlink:href="#m7b842ca2a7" y="260.798437"/>
      </g>
     </g>
    </g>
   </g>
   <g id="matplotlib.axis_2">
    <g id="ytick_1">
     <g id="line2d_6">
      <defs>
       <path d="M 0 0 
L -3.5 0 
" id="m25b47c79a2" style="stroke:#000000;stroke-width:0.8;"/>
      </defs>
      <g>
       <use style="stroke:#000000;stroke-width:0.8;" x="46.965625" xlink:href="#m25b47c79a2" y="250.103126"/>
      </g>
     </g>
     <g id="text_1">
      <!-- 0 -->
      <g transform="translate(33.603125 253.902345)scale(0.1 -0.1)">
       <defs>
        <path d="M 2034 4250 
Q 1547 4250 1301 3770 
Q 1056 3291 1056 2328 
Q 1056 1369 1301 889 
Q 1547 409 2034 409 
Q 2525 409 2770 889 
Q 3016 1369 3016 2328 
Q 3016 3291 2770 3770 
Q 2525 4250 2034 4250 
z
M 2034 4750 
Q 2819 4750 3233 4129 
Q 3647 3509 3647 2328 
Q 3647 1150 3233 529 
Q 2819 -91 2034 -91 
Q 1250 -91 836 529 
Q 422 1150 422 2328 
Q 422 3509 836 4129 
Q 1250 4750 2034 4750 
z
" id="DejaVuSans-30" transform="scale(0.015625)"/>
       </defs>
       <use xlink:href="#DejaVuSans-30"/>
      </g>
     </g>
    </g>
    <g id="ytick_2">
     <g id="line2d_7">
      <g>
       <use style="stroke:#000000;stroke-width:0.8;" x="46.965625" xlink:href="#m25b47c79a2" y="201.516787"/>
      </g>
     </g>
     <g id="text_2">
      <!-- 200 -->
      <g transform="translate(20.878125 205.316005)scale(0.1 -0.1)">
       <defs>
        <path d="M 1228 531 
L 3431 531 
L 3431 0 
L 469 0 
L 469 531 
Q 828 903 1448 1529 
Q 2069 2156 2228 2338 
Q 2531 2678 2651 2914 
Q 2772 3150 2772 3378 
Q 2772 3750 2511 3984 
Q 2250 4219 1831 4219 
Q 1534 4219 1204 4116 
Q 875 4013 500 3803 
L 500 4441 
Q 881 4594 1212 4672 
Q 1544 4750 1819 4750 
Q 2544 4750 2975 4387 
Q 3406 4025 3406 3419 
Q 3406 3131 3298 2873 
Q 3191 2616 2906 2266 
Q 2828 2175 2409 1742 
Q 1991 1309 1228 531 
z
" id="DejaVuSans-32" transform="scale(0.015625)"/>
       </defs>
       <use xlink:href="#DejaVuSans-32"/>
       <use x="63.623047" xlink:href="#DejaVuSans-30"/>
       <use x="127.246094" xlink:href="#DejaVuSans-30"/>
      </g>
     </g>
    </g>
    <g id="ytick_3">
     <g id="line2d_8">
      <g>
       <use style="stroke:#000000;stroke-width:0.8;" x="46.965625" xlink:href="#m25b47c79a2" y="152.930447"/>
      </g>
     </g>
     <g id="text_3">
      <!-- 400 -->
      <g transform="translate(20.878125 156.729665)scale(0.1 -0.1)">
       <defs>
        <path d="M 2419 4116 
L 825 1625 
L 2419 1625 
L 2419 4116 
z
M 2253 4666 
L 3047 4666 
L 3047 1625 
L 3713 1625 
L 3713 1100 
L 3047 1100 
L 3047 0 
L 2419 0 
L 2419 1100 
L 313 1100 
L 313 1709 
L 2253 4666 
z
" id="DejaVuSans-34" transform="scale(0.015625)"/>
       </defs>
       <use xlink:href="#DejaVuSans-34"/>
       <use x="63.623047" xlink:href="#DejaVuSans-30"/>
       <use x="127.246094" xlink:href="#DejaVuSans-30"/>
      </g>
     </g>
    </g>
    <g id="ytick_4">
     <g id="line2d_9">
      <g>
       <use style="stroke:#000000;stroke-width:0.8;" x="46.965625" xlink:href="#m25b47c79a2" y="104.344107"/>
      </g>
     </g>
     <g id="text_4">
      <!-- 600 -->
      <g transform="translate(20.878125 108.143325)scale(0.1 -0.1)">
       <defs>
        <path d="M 2113 2584 
Q 1688 2584 1439 2293 
Q 1191 2003 1191 1497 
Q 1191 994 1439 701 
Q 1688 409 2113 409 
Q 2538 409 2786 701 
Q 3034 994 3034 1497 
Q 3034 2003 2786 2293 
Q 2538 2584 2113 2584 
z
M 3366 4563 
L 3366 3988 
Q 3128 4100 2886 4159 
Q 2644 4219 2406 4219 
Q 1781 4219 1451 3797 
Q 1122 3375 1075 2522 
Q 1259 2794 1537 2939 
Q 1816 3084 2150 3084 
Q 2853 3084 3261 2657 
Q 3669 2231 3669 1497 
Q 3669 778 3244 343 
Q 2819 -91 2113 -91 
Q 1303 -91 875 529 
Q 447 1150 447 2328 
Q 447 3434 972 4092 
Q 1497 4750 2381 4750 
Q 2619 4750 2861 4703 
Q 3103 4656 3366 4563 
z
" id="DejaVuSans-36" transform="scale(0.015625)"/>
       </defs>
       <use xlink:href="#DejaVuSans-36"/>
       <use x="63.623047" xlink:href="#DejaVuSans-30"/>
       <use x="127.246094" xlink:href="#DejaVuSans-30"/>
      </g>
     </g>
    </g>
    <g id="ytick_5">
     <g id="line2d_10">
      <g>
       <use style="stroke:#000000;stroke-width:0.8;" x="46.965625" xlink:href="#m25b47c79a2" y="55.757767"/>
      </g>
     </g>
     <g id="text_5">
      <!-- 800 -->
      <g transform="translate(20.878125 59.556985)scale(0.1 -0.1)">
       <defs>
        <path d="M 2034 2216 
Q 1584 2216 1326 1975 
Q 1069 1734 1069 1313 
Q 1069 891 1326 650 
Q 1584 409 2034 409 
Q 2484 409 2743 651 
Q 3003 894 3003 1313 
Q 3003 1734 2745 1975 
Q 2488 2216 2034 2216 
z
M 1403 2484 
Q 997 2584 770 2862 
Q 544 3141 544 3541 
Q 544 4100 942 4425 
Q 1341 4750 2034 4750 
Q 2731 4750 3128 4425 
Q 3525 4100 3525 3541 
Q 3525 3141 3298 2862 
Q 3072 2584 2669 2484 
Q 3125 2378 3379 2068 
Q 3634 1759 3634 1313 
Q 3634 634 3220 271 
Q 2806 -91 2034 -91 
Q 1263 -91 848 271 
Q 434 634 434 1313 
Q 434 1759 690 2068 
Q 947 2378 1403 2484 
z
M 1172 3481 
Q 1172 3119 1398 2916 
Q 1625 2713 2034 2713 
Q 2441 2713 2670 2916 
Q 2900 3119 2900 3481 
Q 2900 3844 2670 4047 
Q 2441 4250 2034 4250 
Q 1625 4250 1398 4047 
Q 1172 3844 1172 3481 
z
" id="DejaVuSans-38" transform="scale(0.015625)"/>
       </defs>
       <use xlink:href="#DejaVuSans-38"/>
       <use x="63.623047" xlink:href="#DejaVuSans-30"/>
       <use x="127.246094" xlink:href="#DejaVuSans-30"/>
      </g>
     </g>
    </g>
    <g id="text_6">
     <!-- Price -->
     <g transform="translate(14.798438 152.996094)rotate(-90)scale(0.1 -0.1)">
      <defs>
       <path d="M 1259 4147 
L 1259 2394 
L 2053 2394 
Q 2494 2394 2734 2622 
Q 2975 2850 2975 3272 
Q 2975 3691 2734 3919 
Q 2494 4147 2053 4147 
L 1259 4147 
z
M 628 4666 
L 2053 4666 
Q 2838 4666 3239 4311 
Q 3641 3956 3641 3272 
Q 3641 2581 3239 2228 
Q 2838 1875 2053 1875 
L 1259 1875 
L 1259 0 
L 628 0 
L 628 4666 
z
" id="DejaVuSans-50" transform="scale(0.015625)"/>
       <path d="M 2631 2963 
Q 2534 3019 2420 3045 
Q 2306 3072 2169 3072 
Q 1681 3072 1420 2755 
Q 1159 2438 1159 1844 
L 1159 0 
L 581 0 
L 581 3500 
L 1159 3500 
L 1159 2956 
Q 1341 3275 1631 3429 
Q 1922 3584 2338 3584 
Q 2397 3584 2469 3576 
Q 2541 3569 2628 3553 
L 2631 2963 
z
" id="DejaVuSans-72" transform="scale(0.015625)"/>
       <path d="M 603 3500 
L 1178 3500 
L 1178 0 
L 603 0 
L 603 3500 
z
M 603 4863 
L 1178 4863 
L 1178 4134 
L 603 4134 
L 603 4863 
z
" id="DejaVuSans-69" transform="scale(0.015625)"/>
       <path d="M 3122 3366 
L 3122 2828 
Q 2878 2963 2633 3030 
Q 2388 3097 2138 3097 
Q 1578 3097 1268 2742 
Q 959 2388 959 1747 
Q 959 1106 1268 751 
Q 1578 397 2138 397 
Q 2388 397 2633 464 
Q 2878 531 3122 666 
L 3122 134 
Q 2881 22 2623 -34 
Q 2366 -91 2075 -91 
Q 1284 -91 818 406 
Q 353 903 353 1747 
Q 353 2603 823 3093 
Q 1294 3584 2113 3584 
Q 2378 3584 2631 3529 
Q 2884 3475 3122 3366 
z
" id="DejaVuSans-63" transform="scale(0.015625)"/>
       <path d="M 3597 1894 
L 3597 1613 
L 953 1613 
Q 991 1019 1311 708 
Q 1631 397 2203 397 
Q 2534 397 2845 478 
Q 3156 559 3463 722 
L 3463 178 
Q 3153 47 2828 -22 
Q 2503 -91 2169 -91 
Q 1331 -91 842 396 
Q 353 884 353 1716 
Q 353 2575 817 3079 
Q 1281 3584 2069 3584 
Q 2775 3584 3186 3129 
Q 3597 2675 3597 1894 
z
M 3022 2063 
Q 3016 2534 2758 2815 
Q 2500 3097 2075 3097 
Q 1594 3097 1305 2825 
Q 1016 2553 972 2059 
L 3022 2063 
z
" id="DejaVuSans-65" transform="scale(0.015625)"/>
      </defs>
      <use xlink:href="#DejaVuSans-50"/>
      <use x="58.552734" xlink:href="#DejaVuSans-72"/>
      <use x="99.666016" xlink:href="#DejaVuSans-69"/>
      <use x="127.449219" xlink:href="#DejaVuSans-63"/>
      <use x="182.429688" xlink:href="#DejaVuSans-65"/>
     </g>
    </g>
   </g>
   <g id="line2d_11">
    <path clip-path="url(#p1de823ccca)" d="M 61.602449 247.678668 
L 61.613073 199.089899 
L 61.662423 206.37785 
L 61.70869 218.524435 
L 61.766951 206.37785 
L 61.85023 243.058107 
L 62.02193 213.665801 
L 62.098012 246.46158 
L 62.140851 169.938095 
L 62.867403 182.325182 
L 62.98701 246.704512 
L 63.042873 245.975717 
L 63.183385 245.246922 
L 63.511019 167.508778 
L 63.597726 182.08468 
L 63.862643 31.707528 
L 64.039826 177.954841 
L 64.88667 186.659084 
L 65.228013 220.953752 
L 65.265026 223.383069 
L 65.399712 245.489854 
L 65.543309 228.64254 
L 66.047098 177.235763 
L 67.430974 245.516576 
L 67.487179 197.87524 
L 67.749012 245.975717 
L 68.825475 225.812386 
L 68.929317 246.947444 
L 68.991005 247.06891 
L 69.555111 219.739093 
L 69.588697 210.033972 
L 69.737435 201.519216 
L 72.583669 225.812386 
L 73.20398 248.164532 
L 73.313648 245.25178 
L 73.847596 245.489854 
L 73.988108 228.241703 
L 74.629668 213.665801 
L 74.87882 241.09279 
L 75.174582 242.08881 
L 75.250664 243.789332 
L 76.232881 220.953752 
L 76.462156 240.993188 
L 76.71028 172.80226 
L 76.790132 247.005747 
L 77.895726 220.953752 
L 79.033534 236.015517 
L 80.141869 179.987738 
L 80.686098 208.804738 
L 82.090194 246.891569 
L 82.692684 231.885678 
L 84.692759 240.876581 
L 86.563974 248.162102 
L 88.551711 235.529654 
L 90.311201 216.095118 
L 91.051805 240.62879 
L 94.180778 211.476986 
L 95.967685 228.241703 
L 95.968028 228.241703 
L 99.534302 218.524435 
L 99.865021 237.958971 
L 100.761902 243.184432 
L 101.572761 237.958971 
L 123.702446 225.812386 
L 128.055934 237.958971 
L 137.755064 230.67102 
L 153.386904 238.653061 
L 197.257295 235.529654 
L 197.257637 235.529654 
L 210.398294 244.032263 
L 281.184704 240.388288 
L 354.31733 241.602946 
" style="fill:none;stroke:#1f77b4;stroke-linecap:square;stroke-width:1.5;"/>
   </g>
   <g id="patch_3">
    <path d="M 46.965625 260.798437 
L 46.965625 20.798438 
" style="fill:none;stroke:#000000;stroke-linecap:square;stroke-linejoin:miter;stroke-width:0.8;"/>
   </g>
   <g id="patch_4">
    <path d="M 46.965625 260.798437 
L 368.953125 260.798437 
" style="fill:none;stroke:#000000;stroke-linecap:square;stroke-linejoin:miter;stroke-width:0.8;"/>
   </g>
   <g id="text_7">
    <!-- Category = Electronics -->
    <g transform="translate(150.502344 14.798438)scale(0.1 -0.1)">
     <defs>
      <path d="M 4122 4306 
L 4122 3641 
Q 3803 3938 3442 4084 
Q 3081 4231 2675 4231 
Q 1875 4231 1450 3742 
Q 1025 3253 1025 2328 
Q 1025 1406 1450 917 
Q 1875 428 2675 428 
Q 3081 428 3442 575 
Q 3803 722 4122 1019 
L 4122 359 
Q 3791 134 3420 21 
Q 3050 -91 2638 -91 
Q 1578 -91 968 557 
Q 359 1206 359 2328 
Q 359 3453 968 4101 
Q 1578 4750 2638 4750 
Q 3056 4750 3426 4639 
Q 3797 4528 4122 4306 
z
" id="DejaVuSans-43" transform="scale(0.015625)"/>
      <path d="M 2194 1759 
Q 1497 1759 1228 1600 
Q 959 1441 959 1056 
Q 959 750 1161 570 
Q 1363 391 1709 391 
Q 2188 391 2477 730 
Q 2766 1069 2766 1631 
L 2766 1759 
L 2194 1759 
z
M 3341 1997 
L 3341 0 
L 2766 0 
L 2766 531 
Q 2569 213 2275 61 
Q 1981 -91 1556 -91 
Q 1019 -91 701 211 
Q 384 513 384 1019 
Q 384 1609 779 1909 
Q 1175 2209 1959 2209 
L 2766 2209 
L 2766 2266 
Q 2766 2663 2505 2880 
Q 2244 3097 1772 3097 
Q 1472 3097 1187 3025 
Q 903 2953 641 2809 
L 641 3341 
Q 956 3463 1253 3523 
Q 1550 3584 1831 3584 
Q 2591 3584 2966 3190 
Q 3341 2797 3341 1997 
z
" id="DejaVuSans-61" transform="scale(0.015625)"/>
      <path d="M 1172 4494 
L 1172 3500 
L 2356 3500 
L 2356 3053 
L 1172 3053 
L 1172 1153 
Q 1172 725 1289 603 
Q 1406 481 1766 481 
L 2356 481 
L 2356 0 
L 1766 0 
Q 1100 0 847 248 
Q 594 497 594 1153 
L 594 3053 
L 172 3053 
L 172 3500 
L 594 3500 
L 594 4494 
L 1172 4494 
z
" id="DejaVuSans-74" transform="scale(0.015625)"/>
      <path d="M 2906 1791 
Q 2906 2416 2648 2759 
Q 2391 3103 1925 3103 
Q 1463 3103 1205 2759 
Q 947 2416 947 1791 
Q 947 1169 1205 825 
Q 1463 481 1925 481 
Q 2391 481 2648 825 
Q 2906 1169 2906 1791 
z
M 3481 434 
Q 3481 -459 3084 -895 
Q 2688 -1331 1869 -1331 
Q 1566 -1331 1297 -1286 
Q 1028 -1241 775 -1147 
L 775 -588 
Q 1028 -725 1275 -790 
Q 1522 -856 1778 -856 
Q 2344 -856 2625 -561 
Q 2906 -266 2906 331 
L 2906 616 
Q 2728 306 2450 153 
Q 2172 0 1784 0 
Q 1141 0 747 490 
Q 353 981 353 1791 
Q 353 2603 747 3093 
Q 1141 3584 1784 3584 
Q 2172 3584 2450 3431 
Q 2728 3278 2906 2969 
L 2906 3500 
L 3481 3500 
L 3481 434 
z
" id="DejaVuSans-67" transform="scale(0.015625)"/>
      <path d="M 1959 3097 
Q 1497 3097 1228 2736 
Q 959 2375 959 1747 
Q 959 1119 1226 758 
Q 1494 397 1959 397 
Q 2419 397 2687 759 
Q 2956 1122 2956 1747 
Q 2956 2369 2687 2733 
Q 2419 3097 1959 3097 
z
M 1959 3584 
Q 2709 3584 3137 3096 
Q 3566 2609 3566 1747 
Q 3566 888 3137 398 
Q 2709 -91 1959 -91 
Q 1206 -91 779 398 
Q 353 888 353 1747 
Q 353 2609 779 3096 
Q 1206 3584 1959 3584 
z
" id="DejaVuSans-6f" transform="scale(0.015625)"/>
      <path d="M 2059 -325 
Q 1816 -950 1584 -1140 
Q 1353 -1331 966 -1331 
L 506 -1331 
L 506 -850 
L 844 -850 
Q 1081 -850 1212 -737 
Q 1344 -625 1503 -206 
L 1606 56 
L 191 3500 
L 800 3500 
L 1894 763 
L 2988 3500 
L 3597 3500 
L 2059 -325 
z
" id="DejaVuSans-79" transform="scale(0.015625)"/>
      <path id="DejaVuSans-20" transform="scale(0.015625)"/>
      <path d="M 678 2906 
L 4684 2906 
L 4684 2381 
L 678 2381 
L 678 2906 
z
M 678 1631 
L 4684 1631 
L 4684 1100 
L 678 1100 
L 678 1631 
z
" id="DejaVuSans-3d" transform="scale(0.015625)"/>
      <path d="M 628 4666 
L 3578 4666 
L 3578 4134 
L 1259 4134 
L 1259 2753 
L 3481 2753 
L 3481 2222 
L 1259 2222 
L 1259 531 
L 3634 531 
L 3634 0 
L 628 0 
L 628 4666 
z
" id="DejaVuSans-45" transform="scale(0.015625)"/>
      <path d="M 603 4863 
L 1178 4863 
L 1178 0 
L 603 0 
L 603 4863 
z
" id="DejaVuSans-6c" transform="scale(0.015625)"/>
      <path d="M 3513 2113 
L 3513 0 
L 2938 0 
L 2938 2094 
Q 2938 2591 2744 2837 
Q 2550 3084 2163 3084 
Q 1697 3084 1428 2787 
Q 1159 2491 1159 1978 
L 1159 0 
L 581 0 
L 581 3500 
L 1159 3500 
L 1159 2956 
Q 1366 3272 1645 3428 
Q 1925 3584 2291 3584 
Q 2894 3584 3203 3211 
Q 3513 2838 3513 2113 
z
" id="DejaVuSans-6e" transform="scale(0.015625)"/>
      <path d="M 2834 3397 
L 2834 2853 
Q 2591 2978 2328 3040 
Q 2066 3103 1784 3103 
Q 1356 3103 1142 2972 
Q 928 2841 928 2578 
Q 928 2378 1081 2264 
Q 1234 2150 1697 2047 
L 1894 2003 
Q 2506 1872 2764 1633 
Q 3022 1394 3022 966 
Q 3022 478 2636 193 
Q 2250 -91 1575 -91 
Q 1294 -91 989 -36 
Q 684 19 347 128 
L 347 722 
Q 666 556 975 473 
Q 1284 391 1588 391 
Q 1994 391 2212 530 
Q 2431 669 2431 922 
Q 2431 1156 2273 1281 
Q 2116 1406 1581 1522 
L 1381 1569 
Q 847 1681 609 1914 
Q 372 2147 372 2553 
Q 372 3047 722 3315 
Q 1072 3584 1716 3584 
Q 2034 3584 2315 3537 
Q 2597 3491 2834 3397 
z
" id="DejaVuSans-73" transform="scale(0.015625)"/>
     </defs>
     <use xlink:href="#DejaVuSans-43"/>
     <use x="69.824219" xlink:href="#DejaVuSans-61"/>
     <use x="131.103516" xlink:href="#DejaVuSans-74"/>
     <use x="170.3125" xlink:href="#DejaVuSans-65"/>
     <use x="231.835938" xlink:href="#DejaVuSans-67"/>
     <use x="295.3125" xlink:href="#DejaVuSans-6f"/>
     <use x="356.494141" xlink:href="#DejaVuSans-72"/>
     <use x="397.607422" xlink:href="#DejaVuSans-79"/>
     <use x="456.787109" xlink:href="#DejaVuSans-20"/>
     <use x="488.574219" xlink:href="#DejaVuSans-3d"/>
     <use x="572.363281" xlink:href="#DejaVuSans-20"/>
     <use x="604.150391" xlink:href="#DejaVuSans-45"/>
     <use x="667.333984" xlink:href="#DejaVuSans-6c"/>
     <use x="695.117188" xlink:href="#DejaVuSans-65"/>
     <use x="756.640625" xlink:href="#DejaVuSans-63"/>
     <use x="811.621094" xlink:href="#DejaVuSans-74"/>
     <use x="850.830078" xlink:href="#DejaVuSans-72"/>
     <use x="889.693359" xlink:href="#DejaVuSans-6f"/>
     <use x="950.875" xlink:href="#DejaVuSans-6e"/>
     <use x="1014.253906" xlink:href="#DejaVuSans-69"/>
     <use x="1042.037109" xlink:href="#DejaVuSans-63"/>
     <use x="1097.017578" xlink:href="#DejaVuSans-73"/>
    </g>
   </g>
  </g>
  <g id="axes_2">
   <g id="patch_5">
    <path d="M 383.253125 260.798437 
L 705.240625 260.798437 
L 705.240625 20.798438 
L 383.253125 20.798438 
z
" style="fill:#ffffff;"/>
   </g>
   <g id="matplotlib.axis_3">
    <g id="xtick_6">
     <g id="line2d_12">
      <g>
       <use style="stroke:#000000;stroke-width:0.8;" x="397.888578" xlink:href="#m7b842ca2a7" y="260.798437"/>
      </g>
     </g>
    </g>
    <g id="xtick_7">
     <g id="line2d_13">
      <g>
       <use style="stroke:#000000;stroke-width:0.8;" x="466.431243" xlink:href="#m7b842ca2a7" y="260.798437"/>
      </g>
     </g>
    </g>
    <g id="xtick_8">
     <g id="line2d_14">
      <g>
       <use style="stroke:#000000;stroke-width:0.8;" x="534.973909" xlink:href="#m7b842ca2a7" y="260.798437"/>
      </g>
     </g>
    </g>
    <g id="xtick_9">
     <g id="line2d_15">
      <g>
       <use style="stroke:#000000;stroke-width:0.8;" x="603.516575" xlink:href="#m7b842ca2a7" y="260.798437"/>
      </g>
     </g>
    </g>
    <g id="xtick_10">
     <g id="line2d_16">
      <g>
       <use style="stroke:#000000;stroke-width:0.8;" x="672.05924" xlink:href="#m7b842ca2a7" y="260.798437"/>
      </g>
     </g>
    </g>
   </g>
   <g id="matplotlib.axis_4">
    <g id="ytick_6">
     <g id="line2d_17">
      <g>
       <use style="stroke:#000000;stroke-width:0.8;" x="383.253125" xlink:href="#m25b47c79a2" y="250.103126"/>
      </g>
     </g>
    </g>
    <g id="ytick_7">
     <g id="line2d_18">
      <g>
       <use style="stroke:#000000;stroke-width:0.8;" x="383.253125" xlink:href="#m25b47c79a2" y="201.516787"/>
      </g>
     </g>
    </g>
    <g id="ytick_8">
     <g id="line2d_19">
      <g>
       <use style="stroke:#000000;stroke-width:0.8;" x="383.253125" xlink:href="#m25b47c79a2" y="152.930447"/>
      </g>
     </g>
    </g>
    <g id="ytick_9">
     <g id="line2d_20">
      <g>
       <use style="stroke:#000000;stroke-width:0.8;" x="383.253125" xlink:href="#m25b47c79a2" y="104.344107"/>
      </g>
     </g>
    </g>
    <g id="ytick_10">
     <g id="line2d_21">
      <g>
       <use style="stroke:#000000;stroke-width:0.8;" x="383.253125" xlink:href="#m25b47c79a2" y="55.757767"/>
      </g>
     </g>
    </g>
   </g>
   <g id="line2d_22">
    <path clip-path="url(#pd77ec2ca73)" d="M 397.896117 242.839469 
L 398.33479 244.275195 
L 398.485242 246.221078 
L 398.518142 245.489854 
L 399.296101 248.162102 
L 399.382122 244.153729 
L 399.554165 245.975717 
L 399.58261 243.79662 
L 399.626477 246.218649 
L 399.714897 246.228366 
L 399.743685 247.826856 
L 399.863977 246.46158 
L 399.882827 247.676239 
L 399.965078 243.060537 
L 400.247131 245.732785 
L 400.436651 245.732785 
L 400.48326 247.433307 
L 400.536381 245.256639 
L 400.709451 243.303468 
L 400.722474 247.676239 
L 400.806439 246.218649 
L 400.876695 244.761058 
L 401.009325 245.489854 
L 401.128932 244.761058 
L 401.211869 243.060537 
L 401.323251 247.676239 
L 401.452796 248.405034 
L 401.524766 244.761058 
L 401.543273 242.331741 
L 402.11389 246.415423 
L 402.132397 246.218649 
L 402.220131 246.704512 
L 402.222188 245.246922 
L 402.225615 248.162102 
L 402.292444 245.489854 
L 402.404511 245.975717 
L 402.541597 244.430671 
L 402.627618 248.188825 
L 402.762989 246.218649 
L 403.258553 244.761058 
L 403.423741 245.341665 
L 403.664668 246.218649 
L 403.712305 248.162102 
L 403.829171 242.817605 
L 404.045423 246.046167 
L 404.413154 246.240512 
L 404.747642 247.015465 
L 404.894324 245.246922 
L 404.996109 245.246922 
L 405.029695 248.426898 
L 405.809025 248.162102 
L 405.823077 236.75403 
L 405.882709 248.647966 
L 406.041042 244.484116 
L 406.6874 244.032263 
L 406.907422 246.779821 
L 407.160344 245.536011 
L 407.511625 247.676239 
L 407.527733 245.07444 
L 407.545554 244.549708 
L 407.672015 245.00399 
L 408.016442 237.968688 
L 408.032207 248.820447 
L 408.078816 244.032263 
L 408.10212 245.985434 
L 408.140162 245.791089 
L 408.148387 248.234982 
L 408.321114 245.732785 
L 408.647035 248.320008 
L 408.865686 243.944808 
L 409.360564 249.051232 
L 409.418825 247.187946 
L 409.43836 245.975717 
L 410.188216 245.489854 
L 410.900032 239.416561 
L 411.18277 246.949873 
L 411.813706 248.706269 
L 412.257177 244.032263 
L 412.959739 245.754649 
L 412.963166 246.549036 
L 413.155086 247.185517 
L 414.891614 246.46401 
L 415.124316 243.026526 
L 416.201464 245.246922 
L 416.926303 246.731234 
L 417.949988 243.065395 
L 418.287218 247.435736 
L 418.444523 247.916741 
L 420.155348 247.676239 
L 420.43226 247.994479 
L 420.58888 246.587905 
L 420.820897 247.190375 
L 420.99808 246.223507 
L 422.049867 245.244492 
L 422.88506 247.676239 
L 423.184934 246.823549 
L 425.570904 245.730356 
L 428.095331 246.945014 
L 438.030247 246.947444 
L 445.337581 246.223507 
" style="fill:none;stroke:#ff7f0e;stroke-linecap:square;stroke-width:1.5;"/>
   </g>
   <g id="patch_6">
    <path d="M 383.253125 260.798437 
L 383.253125 20.798438 
" style="fill:none;stroke:#000000;stroke-linecap:square;stroke-linejoin:miter;stroke-width:0.8;"/>
   </g>
   <g id="patch_7">
    <path d="M 383.253125 260.798437 
L 705.240625 260.798437 
" style="fill:none;stroke:#000000;stroke-linecap:square;stroke-linejoin:miter;stroke-width:0.8;"/>
   </g>
   <g id="text_8">
    <!-- Category = Clothing, Shoes &amp; Jewelry -->
    <g transform="translate(449.777344 14.798438)scale(0.1 -0.1)">
     <defs>
      <path d="M 3513 2113 
L 3513 0 
L 2938 0 
L 2938 2094 
Q 2938 2591 2744 2837 
Q 2550 3084 2163 3084 
Q 1697 3084 1428 2787 
Q 1159 2491 1159 1978 
L 1159 0 
L 581 0 
L 581 4863 
L 1159 4863 
L 1159 2956 
Q 1366 3272 1645 3428 
Q 1925 3584 2291 3584 
Q 2894 3584 3203 3211 
Q 3513 2838 3513 2113 
z
" id="DejaVuSans-68" transform="scale(0.015625)"/>
      <path d="M 750 794 
L 1409 794 
L 1409 256 
L 897 -744 
L 494 -744 
L 750 256 
L 750 794 
z
" id="DejaVuSans-2c" transform="scale(0.015625)"/>
      <path d="M 3425 4513 
L 3425 3897 
Q 3066 4069 2747 4153 
Q 2428 4238 2131 4238 
Q 1616 4238 1336 4038 
Q 1056 3838 1056 3469 
Q 1056 3159 1242 3001 
Q 1428 2844 1947 2747 
L 2328 2669 
Q 3034 2534 3370 2195 
Q 3706 1856 3706 1288 
Q 3706 609 3251 259 
Q 2797 -91 1919 -91 
Q 1588 -91 1214 -16 
Q 841 59 441 206 
L 441 856 
Q 825 641 1194 531 
Q 1563 422 1919 422 
Q 2459 422 2753 634 
Q 3047 847 3047 1241 
Q 3047 1584 2836 1778 
Q 2625 1972 2144 2069 
L 1759 2144 
Q 1053 2284 737 2584 
Q 422 2884 422 3419 
Q 422 4038 858 4394 
Q 1294 4750 2059 4750 
Q 2388 4750 2728 4690 
Q 3069 4631 3425 4513 
z
" id="DejaVuSans-53" transform="scale(0.015625)"/>
      <path d="M 1556 2509 
Q 1272 2256 1139 2004 
Q 1006 1753 1006 1478 
Q 1006 1022 1337 719 
Q 1669 416 2169 416 
Q 2466 416 2725 514 
Q 2984 613 3213 813 
L 1556 2509 
z
M 1997 2859 
L 3584 1234 
Q 3769 1513 3872 1830 
Q 3975 2147 3994 2503 
L 4575 2503 
Q 4538 2091 4375 1687 
Q 4213 1284 3922 891 
L 4794 0 
L 4006 0 
L 3559 459 
Q 3234 181 2878 45 
Q 2522 -91 2113 -91 
Q 1359 -91 881 339 
Q 403 769 403 1441 
Q 403 1841 612 2192 
Q 822 2544 1241 2853 
Q 1091 3050 1012 3245 
Q 934 3441 934 3628 
Q 934 4134 1281 4442 
Q 1628 4750 2203 4750 
Q 2463 4750 2720 4694 
Q 2978 4638 3244 4525 
L 3244 3956 
Q 2972 4103 2725 4179 
Q 2478 4256 2266 4256 
Q 1938 4256 1733 4082 
Q 1528 3909 1528 3634 
Q 1528 3475 1620 3314 
Q 1713 3153 1997 2859 
z
" id="DejaVuSans-26" transform="scale(0.015625)"/>
      <path d="M 628 4666 
L 1259 4666 
L 1259 325 
Q 1259 -519 939 -900 
Q 619 -1281 -91 -1281 
L -331 -1281 
L -331 -750 
L -134 -750 
Q 284 -750 456 -515 
Q 628 -281 628 325 
L 628 4666 
z
" id="DejaVuSans-4a" transform="scale(0.015625)"/>
      <path d="M 269 3500 
L 844 3500 
L 1563 769 
L 2278 3500 
L 2956 3500 
L 3675 769 
L 4391 3500 
L 4966 3500 
L 4050 0 
L 3372 0 
L 2619 2869 
L 1863 0 
L 1184 0 
L 269 3500 
z
" id="DejaVuSans-77" transform="scale(0.015625)"/>
     </defs>
     <use xlink:href="#DejaVuSans-43"/>
     <use x="69.824219" xlink:href="#DejaVuSans-61"/>
     <use x="131.103516" xlink:href="#DejaVuSans-74"/>
     <use x="170.3125" xlink:href="#DejaVuSans-65"/>
     <use x="231.835938" xlink:href="#DejaVuSans-67"/>
     <use x="295.3125" xlink:href="#DejaVuSans-6f"/>
     <use x="356.494141" xlink:href="#DejaVuSans-72"/>
     <use x="397.607422" xlink:href="#DejaVuSans-79"/>
     <use x="456.787109" xlink:href="#DejaVuSans-20"/>
     <use x="488.574219" xlink:href="#DejaVuSans-3d"/>
     <use x="572.363281" xlink:href="#DejaVuSans-20"/>
     <use x="604.150391" xlink:href="#DejaVuSans-43"/>
     <use x="673.974609" xlink:href="#DejaVuSans-6c"/>
     <use x="701.757812" xlink:href="#DejaVuSans-6f"/>
     <use x="762.939453" xlink:href="#DejaVuSans-74"/>
     <use x="802.148438" xlink:href="#DejaVuSans-68"/>
     <use x="865.527344" xlink:href="#DejaVuSans-69"/>
     <use x="893.310547" xlink:href="#DejaVuSans-6e"/>
     <use x="956.689453" xlink:href="#DejaVuSans-67"/>
     <use x="1020.166016" xlink:href="#DejaVuSans-2c"/>
     <use x="1051.953125" xlink:href="#DejaVuSans-20"/>
     <use x="1083.740234" xlink:href="#DejaVuSans-53"/>
     <use x="1147.216797" xlink:href="#DejaVuSans-68"/>
     <use x="1210.595703" xlink:href="#DejaVuSans-6f"/>
     <use x="1271.777344" xlink:href="#DejaVuSans-65"/>
     <use x="1333.300781" xlink:href="#DejaVuSans-73"/>
     <use x="1385.400391" xlink:href="#DejaVuSans-20"/>
     <use x="1417.1875" xlink:href="#DejaVuSans-26"/>
     <use x="1495.166016" xlink:href="#DejaVuSans-20"/>
     <use x="1526.953125" xlink:href="#DejaVuSans-4a"/>
     <use x="1556.445312" xlink:href="#DejaVuSans-65"/>
     <use x="1617.96875" xlink:href="#DejaVuSans-77"/>
     <use x="1699.755859" xlink:href="#DejaVuSans-65"/>
     <use x="1761.279297" xlink:href="#DejaVuSans-6c"/>
     <use x="1789.0625" xlink:href="#DejaVuSans-72"/>
     <use x="1830.175781" xlink:href="#DejaVuSans-79"/>
    </g>
   </g>
  </g>
  <g id="axes_3">
   <g id="patch_8">
    <path d="M 46.965625 542.598438 
L 368.953125 542.598438 
L 368.953125 302.598437 
L 46.965625 302.598437 
z
" style="fill:#ffffff;"/>
   </g>
   <g id="PolyCollection_2">
    <path clip-path="url(#p01104fefe4)" d="M 64.084721 519.756541 
L 64.084721 519.756541 
L 64.084721 519.756541 
L 64.084721 519.756541 
z
" style="fill:#2ca02c;fill-opacity:0.2;stroke:#2ca02c;stroke-opacity:0.2;"/>
    <path clip-path="url(#p01104fefe4)" d="M 66.068346 525.829834 
L 66.068346 525.829834 
L 66.068346 525.829834 
L 66.068346 525.829834 
z
" style="fill:#2ca02c;fill-opacity:0.2;stroke:#2ca02c;stroke-opacity:0.2;"/>
    <path clip-path="url(#p01104fefe4)" d="M 69.204173 525.829834 
L 69.204173 525.829834 
L 69.204173 525.829834 
L 69.204173 525.829834 
z
" style="fill:#2ca02c;fill-opacity:0.2;stroke:#2ca02c;stroke-opacity:0.2;"/>
    <path clip-path="url(#p01104fefe4)" d="M 74.482986 525.829834 
L 74.482986 525.829834 
L 78.932433 527.044492 
L 78.932433 527.044492 
L 78.932433 527.044492 
L 74.482986 525.829834 
z
" style="fill:#2ca02c;fill-opacity:0.2;stroke:#2ca02c;stroke-opacity:0.2;"/>
    <path clip-path="url(#p01104fefe4)" d="M 82.969939 525.829834 
L 82.969939 525.829834 
L 87.147957 529.473809 
L 92.919593 519.756541 
L 92.919593 519.756541 
L 92.919593 519.756541 
L 87.147957 529.473809 
L 82.969939 525.829834 
z
" style="fill:#2ca02c;fill-opacity:0.2;stroke:#2ca02c;stroke-opacity:0.2;"/>
    <path clip-path="url(#p01104fefe4)" d="M 308.933517 519.756541 
L 308.933517 519.756541 
L 308.93386 519.756541 
L 308.93386 519.756541 
L 308.93386 519.756541 
L 308.933517 519.756541 
z
" style="fill:#2ca02c;fill-opacity:0.2;stroke:#2ca02c;stroke-opacity:0.2;"/>
   </g>
   <g id="matplotlib.axis_5">
    <g id="xtick_11">
     <g id="line2d_23">
      <g>
       <use style="stroke:#000000;stroke-width:0.8;" x="61.601078" xlink:href="#m7b842ca2a7" y="542.598438"/>
      </g>
     </g>
    </g>
    <g id="xtick_12">
     <g id="line2d_24">
      <g>
       <use style="stroke:#000000;stroke-width:0.8;" x="130.143743" xlink:href="#m7b842ca2a7" y="542.598438"/>
      </g>
     </g>
    </g>
    <g id="xtick_13">
     <g id="line2d_25">
      <g>
       <use style="stroke:#000000;stroke-width:0.8;" x="198.686409" xlink:href="#m7b842ca2a7" y="542.598438"/>
      </g>
     </g>
    </g>
    <g id="xtick_14">
     <g id="line2d_26">
      <g>
       <use style="stroke:#000000;stroke-width:0.8;" x="267.229075" xlink:href="#m7b842ca2a7" y="542.598438"/>
      </g>
     </g>
    </g>
    <g id="xtick_15">
     <g id="line2d_27">
      <g>
       <use style="stroke:#000000;stroke-width:0.8;" x="335.77174" xlink:href="#m7b842ca2a7" y="542.598438"/>
      </g>
     </g>
    </g>
   </g>
   <g id="matplotlib.axis_6">
    <g id="ytick_11">
     <g id="line2d_28">
      <g>
       <use style="stroke:#000000;stroke-width:0.8;" x="46.965625" xlink:href="#m25b47c79a2" y="531.903126"/>
      </g>
     </g>
     <g id="text_9">
      <!-- 0 -->
      <g transform="translate(33.603125 535.702345)scale(0.1 -0.1)">
       <use xlink:href="#DejaVuSans-30"/>
      </g>
     </g>
    </g>
    <g id="ytick_12">
     <g id="line2d_29">
      <g>
       <use style="stroke:#000000;stroke-width:0.8;" x="46.965625" xlink:href="#m25b47c79a2" y="483.316787"/>
      </g>
     </g>
     <g id="text_10">
      <!-- 200 -->
      <g transform="translate(20.878125 487.116005)scale(0.1 -0.1)">
       <use xlink:href="#DejaVuSans-32"/>
       <use x="63.623047" xlink:href="#DejaVuSans-30"/>
       <use x="127.246094" xlink:href="#DejaVuSans-30"/>
      </g>
     </g>
    </g>
    <g id="ytick_13">
     <g id="line2d_30">
      <g>
       <use style="stroke:#000000;stroke-width:0.8;" x="46.965625" xlink:href="#m25b47c79a2" y="434.730447"/>
      </g>
     </g>
     <g id="text_11">
      <!-- 400 -->
      <g transform="translate(20.878125 438.529665)scale(0.1 -0.1)">
       <use xlink:href="#DejaVuSans-34"/>
       <use x="63.623047" xlink:href="#DejaVuSans-30"/>
       <use x="127.246094" xlink:href="#DejaVuSans-30"/>
      </g>
     </g>
    </g>
    <g id="ytick_14">
     <g id="line2d_31">
      <g>
       <use style="stroke:#000000;stroke-width:0.8;" x="46.965625" xlink:href="#m25b47c79a2" y="386.144107"/>
      </g>
     </g>
     <g id="text_12">
      <!-- 600 -->
      <g transform="translate(20.878125 389.943325)scale(0.1 -0.1)">
       <use xlink:href="#DejaVuSans-36"/>
       <use x="63.623047" xlink:href="#DejaVuSans-30"/>
       <use x="127.246094" xlink:href="#DejaVuSans-30"/>
      </g>
     </g>
    </g>
    <g id="ytick_15">
     <g id="line2d_32">
      <g>
       <use style="stroke:#000000;stroke-width:0.8;" x="46.965625" xlink:href="#m25b47c79a2" y="337.557767"/>
      </g>
     </g>
     <g id="text_13">
      <!-- 800 -->
      <g transform="translate(20.878125 341.356985)scale(0.1 -0.1)">
       <use xlink:href="#DejaVuSans-38"/>
       <use x="63.623047" xlink:href="#DejaVuSans-30"/>
       <use x="127.246094" xlink:href="#DejaVuSans-30"/>
      </g>
     </g>
    </g>
    <g id="text_14">
     <!-- Price -->
     <g transform="translate(14.798438 434.796094)rotate(-90)scale(0.1 -0.1)">
      <use xlink:href="#DejaVuSans-50"/>
      <use x="58.552734" xlink:href="#DejaVuSans-72"/>
      <use x="99.666016" xlink:href="#DejaVuSans-69"/>
      <use x="127.449219" xlink:href="#DejaVuSans-63"/>
      <use x="182.429688" xlink:href="#DejaVuSans-65"/>
     </g>
    </g>
   </g>
   <g id="line2d_33">
    <path clip-path="url(#p01104fefe4)" d="M 62.035981 525.829834 
L 62.077107 525.829834 
L 62.184719 519.756541 
L 62.608655 481.628411 
L 62.613453 506.164513 
L 62.662804 524.131741 
L 62.797147 519.756541 
L 63.004489 525.829834 
L 63.598068 525.829834 
L 63.932557 525.829834 
L 64.043938 519.756541 
L 64.084721 519.756541 
L 64.169029 527.044492 
L 64.436688 525.829834 
L 64.56075 528.259151 
L 64.601876 481.628411 
L 64.747872 525.829834 
L 64.816071 525.829834 
L 65.777725 525.829834 
L 65.917895 524.870254 
L 66.068346 525.829834 
L 68.383717 530.688468 
L 68.754876 518.55403 
L 69.204173 525.829834 
L 69.368675 525.829834 
L 70.285433 525.829834 
L 70.546581 519.756541 
L 74.482986 525.829834 
L 78.932433 527.044492 
L 79.597983 529.473809 
L 82.969939 525.829834 
L 87.147957 529.473809 
L 92.919593 519.756541 
L 169.191815 519.756541 
L 308.933517 519.756541 
L 308.93386 519.756541 
" style="fill:none;stroke:#2ca02c;stroke-linecap:square;stroke-width:1.5;"/>
   </g>
   <g id="patch_9">
    <path d="M 46.965625 542.598438 
L 46.965625 302.598437 
" style="fill:none;stroke:#000000;stroke-linecap:square;stroke-linejoin:miter;stroke-width:0.8;"/>
   </g>
   <g id="patch_10">
    <path d="M 46.965625 542.598438 
L 368.953125 542.598438 
" style="fill:none;stroke:#000000;stroke-linecap:square;stroke-linejoin:miter;stroke-width:0.8;"/>
   </g>
   <g id="text_15">
    <!-- Category = Gift Cards -->
    <g transform="translate(152.963281 296.598437)scale(0.1 -0.1)">
     <defs>
      <path d="M 3809 666 
L 3809 1919 
L 2778 1919 
L 2778 2438 
L 4434 2438 
L 4434 434 
Q 4069 175 3628 42 
Q 3188 -91 2688 -91 
Q 1594 -91 976 548 
Q 359 1188 359 2328 
Q 359 3472 976 4111 
Q 1594 4750 2688 4750 
Q 3144 4750 3555 4637 
Q 3966 4525 4313 4306 
L 4313 3634 
Q 3963 3931 3569 4081 
Q 3175 4231 2741 4231 
Q 1884 4231 1454 3753 
Q 1025 3275 1025 2328 
Q 1025 1384 1454 906 
Q 1884 428 2741 428 
Q 3075 428 3337 486 
Q 3600 544 3809 666 
z
" id="DejaVuSans-47" transform="scale(0.015625)"/>
      <path d="M 2375 4863 
L 2375 4384 
L 1825 4384 
Q 1516 4384 1395 4259 
Q 1275 4134 1275 3809 
L 1275 3500 
L 2222 3500 
L 2222 3053 
L 1275 3053 
L 1275 0 
L 697 0 
L 697 3053 
L 147 3053 
L 147 3500 
L 697 3500 
L 697 3744 
Q 697 4328 969 4595 
Q 1241 4863 1831 4863 
L 2375 4863 
z
" id="DejaVuSans-66" transform="scale(0.015625)"/>
      <path d="M 2906 2969 
L 2906 4863 
L 3481 4863 
L 3481 0 
L 2906 0 
L 2906 525 
Q 2725 213 2448 61 
Q 2172 -91 1784 -91 
Q 1150 -91 751 415 
Q 353 922 353 1747 
Q 353 2572 751 3078 
Q 1150 3584 1784 3584 
Q 2172 3584 2448 3432 
Q 2725 3281 2906 2969 
z
M 947 1747 
Q 947 1113 1208 752 
Q 1469 391 1925 391 
Q 2381 391 2643 752 
Q 2906 1113 2906 1747 
Q 2906 2381 2643 2742 
Q 2381 3103 1925 3103 
Q 1469 3103 1208 2742 
Q 947 2381 947 1747 
z
" id="DejaVuSans-64" transform="scale(0.015625)"/>
     </defs>
     <use xlink:href="#DejaVuSans-43"/>
     <use x="69.824219" xlink:href="#DejaVuSans-61"/>
     <use x="131.103516" xlink:href="#DejaVuSans-74"/>
     <use x="170.3125" xlink:href="#DejaVuSans-65"/>
     <use x="231.835938" xlink:href="#DejaVuSans-67"/>
     <use x="295.3125" xlink:href="#DejaVuSans-6f"/>
     <use x="356.494141" xlink:href="#DejaVuSans-72"/>
     <use x="397.607422" xlink:href="#DejaVuSans-79"/>
     <use x="456.787109" xlink:href="#DejaVuSans-20"/>
     <use x="488.574219" xlink:href="#DejaVuSans-3d"/>
     <use x="572.363281" xlink:href="#DejaVuSans-20"/>
     <use x="604.150391" xlink:href="#DejaVuSans-47"/>
     <use x="681.640625" xlink:href="#DejaVuSans-69"/>
     <use x="709.423828" xlink:href="#DejaVuSans-66"/>
     <use x="742.878906" xlink:href="#DejaVuSans-74"/>
     <use x="782.087891" xlink:href="#DejaVuSans-20"/>
     <use x="813.875" xlink:href="#DejaVuSans-43"/>
     <use x="883.699219" xlink:href="#DejaVuSans-61"/>
     <use x="944.978516" xlink:href="#DejaVuSans-72"/>
     <use x="984.341797" xlink:href="#DejaVuSans-64"/>
     <use x="1047.818359" xlink:href="#DejaVuSans-73"/>
    </g>
   </g>
  </g>
  <g id="axes_4">
   <g id="patch_11">
    <path d="M 383.253125 542.598438 
L 705.240625 542.598438 
L 705.240625 302.598437 
L 383.253125 302.598437 
z
" style="fill:#ffffff;"/>
   </g>
   <g id="matplotlib.axis_7">
    <g id="xtick_16">
     <g id="line2d_34">
      <g>
       <use style="stroke:#000000;stroke-width:0.8;" x="397.888578" xlink:href="#m7b842ca2a7" y="542.598438"/>
      </g>
     </g>
    </g>
    <g id="xtick_17">
     <g id="line2d_35">
      <g>
       <use style="stroke:#000000;stroke-width:0.8;" x="466.431243" xlink:href="#m7b842ca2a7" y="542.598438"/>
      </g>
     </g>
    </g>
    <g id="xtick_18">
     <g id="line2d_36">
      <g>
       <use style="stroke:#000000;stroke-width:0.8;" x="534.973909" xlink:href="#m7b842ca2a7" y="542.598438"/>
      </g>
     </g>
    </g>
    <g id="xtick_19">
     <g id="line2d_37">
      <g>
       <use style="stroke:#000000;stroke-width:0.8;" x="603.516575" xlink:href="#m7b842ca2a7" y="542.598438"/>
      </g>
     </g>
    </g>
    <g id="xtick_20">
     <g id="line2d_38">
      <g>
       <use style="stroke:#000000;stroke-width:0.8;" x="672.05924" xlink:href="#m7b842ca2a7" y="542.598438"/>
      </g>
     </g>
    </g>
   </g>
   <g id="matplotlib.axis_8">
    <g id="ytick_16">
     <g id="line2d_39">
      <g>
       <use style="stroke:#000000;stroke-width:0.8;" x="383.253125" xlink:href="#m25b47c79a2" y="531.903126"/>
      </g>
     </g>
    </g>
    <g id="ytick_17">
     <g id="line2d_40">
      <g>
       <use style="stroke:#000000;stroke-width:0.8;" x="383.253125" xlink:href="#m25b47c79a2" y="483.316787"/>
      </g>
     </g>
    </g>
    <g id="ytick_18">
     <g id="line2d_41">
      <g>
       <use style="stroke:#000000;stroke-width:0.8;" x="383.253125" xlink:href="#m25b47c79a2" y="434.730447"/>
      </g>
     </g>
    </g>
    <g id="ytick_19">
     <g id="line2d_42">
      <g>
       <use style="stroke:#000000;stroke-width:0.8;" x="383.253125" xlink:href="#m25b47c79a2" y="386.144107"/>
      </g>
     </g>
    </g>
    <g id="ytick_20">
     <g id="line2d_43">
      <g>
       <use style="stroke:#000000;stroke-width:0.8;" x="383.253125" xlink:href="#m25b47c79a2" y="337.557767"/>
      </g>
     </g>
    </g>
   </g>
   <g id="line2d_44">
    <path clip-path="url(#p7ede1bca0d)" d="M 397.889606 528.625978 
L 397.890291 528.781454 
L 397.894061 525.3464 
L 397.904685 527.391885 
L 397.932445 526.906021 
L 397.974256 529.332909 
L 397.97734 527.44533 
L 398.064732 528.247004 
L 398.113055 528.623549 
L 398.241915 527.824303 
L 398.862226 527.530356 
L 399.009593 529.478668 
L 399.051404 527.965204 
L 399.086704 527.821874 
L 399.281365 529.551548 
L 399.409882 529.573411 
L 399.463688 529.473809 
L 399.513382 527.676115 
L 400.005175 528.987946 
L 400.098736 526.925456 
L 400.125125 530.494123 
L 400.624116 529.850354 
L 400.690945 531.203483 
L 401.560408 530.115149 
L 402.102238 530.115149 
L 402.499786 530.9314 
L 402.526517 530.207463 
L 402.599172 529.869788 
L 402.688621 527.94334 
L 403.19001 530.07628 
L 403.243816 529.563694 
L 403.391868 528.383046 
L 403.664325 529.573411 
L 404.231516 528.93936 
L 404.428576 529.61471 
L 404.611242 529.719171 
L 404.656138 528.881056 
L 404.930309 530.693327 
L 405.274735 530.212322 
L 405.670227 529.388783 
L 405.837128 526.801561 
L 406.065032 528.985517 
L 406.854644 528.26158 
L 407.250478 530.013118 
L 407.501687 528.05023 
L 408.405764 528.332031 
L 408.531883 530.688468 
L 408.673766 529.133705 
L 409.73652 528.990375 
L 410.179306 530.673892 
L 410.297199 530.877955 
L 410.791392 530.688468 
L 411.426097 528.26158 
L 411.70815 527.785434 
L 413.674639 528.992805 
L 414.620528 530.085997 
L 414.963927 530.82451 
L 415.2991 528.506941 
L 415.689108 530.059275 
L 415.757651 528.594397 
L 415.983841 528.560386 
L 416.617518 529.473809 
L 416.698399 530.564573 
L 418.075421 530.501411 
L 418.0905 528.383046 
L 418.709441 529.743464 
L 422.083111 529.915945 
L 425.002 528.550669 
L 428.023018 528.674564 
L 444.603832 529.478668 
" style="fill:none;stroke:#d62728;stroke-linecap:square;stroke-width:1.5;"/>
   </g>
   <g id="patch_12">
    <path d="M 383.253125 542.598438 
L 383.253125 302.598437 
" style="fill:none;stroke:#000000;stroke-linecap:square;stroke-linejoin:miter;stroke-width:0.8;"/>
   </g>
   <g id="patch_13">
    <path d="M 383.253125 542.598438 
L 705.240625 542.598438 
" style="fill:none;stroke:#000000;stroke-linecap:square;stroke-linejoin:miter;stroke-width:0.8;"/>
   </g>
   <g id="text_16">
    <!-- Category = Books -->
    <g transform="translate(498.989063 296.598437)scale(0.1 -0.1)">
     <defs>
      <path d="M 1259 2228 
L 1259 519 
L 2272 519 
Q 2781 519 3026 730 
Q 3272 941 3272 1375 
Q 3272 1813 3026 2020 
Q 2781 2228 2272 2228 
L 1259 2228 
z
M 1259 4147 
L 1259 2741 
L 2194 2741 
Q 2656 2741 2882 2914 
Q 3109 3088 3109 3444 
Q 3109 3797 2882 3972 
Q 2656 4147 2194 4147 
L 1259 4147 
z
M 628 4666 
L 2241 4666 
Q 2963 4666 3353 4366 
Q 3744 4066 3744 3513 
Q 3744 3084 3544 2831 
Q 3344 2578 2956 2516 
Q 3422 2416 3680 2098 
Q 3938 1781 3938 1306 
Q 3938 681 3513 340 
Q 3088 0 2303 0 
L 628 0 
L 628 4666 
z
" id="DejaVuSans-42" transform="scale(0.015625)"/>
      <path d="M 581 4863 
L 1159 4863 
L 1159 1991 
L 2875 3500 
L 3609 3500 
L 1753 1863 
L 3688 0 
L 2938 0 
L 1159 1709 
L 1159 0 
L 581 0 
L 581 4863 
z
" id="DejaVuSans-6b" transform="scale(0.015625)"/>
     </defs>
     <use xlink:href="#DejaVuSans-43"/>
     <use x="69.824219" xlink:href="#DejaVuSans-61"/>
     <use x="131.103516" xlink:href="#DejaVuSans-74"/>
     <use x="170.3125" xlink:href="#DejaVuSans-65"/>
     <use x="231.835938" xlink:href="#DejaVuSans-67"/>
     <use x="295.3125" xlink:href="#DejaVuSans-6f"/>
     <use x="356.494141" xlink:href="#DejaVuSans-72"/>
     <use x="397.607422" xlink:href="#DejaVuSans-79"/>
     <use x="456.787109" xlink:href="#DejaVuSans-20"/>
     <use x="488.574219" xlink:href="#DejaVuSans-3d"/>
     <use x="572.363281" xlink:href="#DejaVuSans-20"/>
     <use x="604.150391" xlink:href="#DejaVuSans-42"/>
     <use x="672.753906" xlink:href="#DejaVuSans-6f"/>
     <use x="733.935547" xlink:href="#DejaVuSans-6f"/>
     <use x="795.117188" xlink:href="#DejaVuSans-6b"/>
     <use x="853.027344" xlink:href="#DejaVuSans-73"/>
    </g>
   </g>
  </g>
  <g id="axes_5">
   <g id="patch_14">
    <path d="M 46.965625 824.398438 
L 368.953125 824.398438 
L 368.953125 584.398438 
L 46.965625 584.398438 
z
" style="fill:#ffffff;"/>
   </g>
   <g id="PolyCollection_3">
    <path clip-path="url(#p129217296d)" d="M 62.892079 807.629834 
L 62.892079 811.273809 
L 62.892079 807.629834 
L 62.892079 807.629834 
z
" style="fill:#9467bd;fill-opacity:0.2;stroke:#9467bd;stroke-opacity:0.2;"/>
    <path clip-path="url(#p129217296d)" d="M 66.968311 806.417605 
L 66.968311 810.06158 
L 67.074552 804.960015 
L 67.074552 803.988288 
L 67.074552 803.988288 
L 66.968311 806.417605 
z
" style="fill:#9467bd;fill-opacity:0.2;stroke:#9467bd;stroke-opacity:0.2;"/>
    <path clip-path="url(#p129217296d)" d="M 70.446851 795.485678 
L 70.446851 797.912566 
L 70.446851 795.485678 
L 70.446851 795.485678 
z
" style="fill:#9467bd;fill-opacity:0.2;stroke:#9467bd;stroke-opacity:0.2;"/>
    <path clip-path="url(#p129217296d)" d="M 70.530816 802.348499 
L 70.530816 807.355321 
L 70.530816 802.348499 
L 70.530816 802.348499 
z
" style="fill:#9467bd;fill-opacity:0.2;stroke:#9467bd;stroke-opacity:0.2;"/>
    <path clip-path="url(#p129217296d)" d="M 78.462574 716.773378 
L 78.462574 741.066548 
L 78.462574 716.773378 
L 78.462574 716.773378 
z
" style="fill:#9467bd;fill-opacity:0.2;stroke:#9467bd;stroke-opacity:0.2;"/>
    <path clip-path="url(#p129217296d)" d="M 85.665722 802.773629 
L 85.665722 811.273809 
L 85.665722 802.773629 
L 85.665722 802.773629 
z
" style="fill:#9467bd;fill-opacity:0.2;stroke:#9467bd;stroke-opacity:0.2;"/>
    <path clip-path="url(#p129217296d)" d="M 101.896968 808.844492 
L 101.896968 811.273809 
L 101.896968 808.844492 
L 101.896968 808.844492 
z
" style="fill:#9467bd;fill-opacity:0.2;stroke:#9467bd;stroke-opacity:0.2;"/>
   </g>
   <g id="matplotlib.axis_9">
    <g id="xtick_21">
     <g id="line2d_45">
      <g>
       <use style="stroke:#000000;stroke-width:0.8;" x="61.601078" xlink:href="#m7b842ca2a7" y="824.398438"/>
      </g>
     </g>
    </g>
    <g id="xtick_22">
     <g id="line2d_46">
      <g>
       <use style="stroke:#000000;stroke-width:0.8;" x="130.143743" xlink:href="#m7b842ca2a7" y="824.398438"/>
      </g>
     </g>
    </g>
    <g id="xtick_23">
     <g id="line2d_47">
      <g>
       <use style="stroke:#000000;stroke-width:0.8;" x="198.686409" xlink:href="#m7b842ca2a7" y="824.398438"/>
      </g>
     </g>
    </g>
    <g id="xtick_24">
     <g id="line2d_48">
      <g>
       <use style="stroke:#000000;stroke-width:0.8;" x="267.229075" xlink:href="#m7b842ca2a7" y="824.398438"/>
      </g>
     </g>
    </g>
    <g id="xtick_25">
     <g id="line2d_49">
      <g>
       <use style="stroke:#000000;stroke-width:0.8;" x="335.77174" xlink:href="#m7b842ca2a7" y="824.398438"/>
      </g>
     </g>
    </g>
   </g>
   <g id="matplotlib.axis_10">
    <g id="ytick_21">
     <g id="line2d_50">
      <g>
       <use style="stroke:#000000;stroke-width:0.8;" x="46.965625" xlink:href="#m25b47c79a2" y="813.703126"/>
      </g>
     </g>
     <g id="text_17">
      <!-- 0 -->
      <g transform="translate(33.603125 817.502345)scale(0.1 -0.1)">
       <use xlink:href="#DejaVuSans-30"/>
      </g>
     </g>
    </g>
    <g id="ytick_22">
     <g id="line2d_51">
      <g>
       <use style="stroke:#000000;stroke-width:0.8;" x="46.965625" xlink:href="#m25b47c79a2" y="765.116787"/>
      </g>
     </g>
     <g id="text_18">
      <!-- 200 -->
      <g transform="translate(20.878125 768.916005)scale(0.1 -0.1)">
       <use xlink:href="#DejaVuSans-32"/>
       <use x="63.623047" xlink:href="#DejaVuSans-30"/>
       <use x="127.246094" xlink:href="#DejaVuSans-30"/>
      </g>
     </g>
    </g>
    <g id="ytick_23">
     <g id="line2d_52">
      <g>
       <use style="stroke:#000000;stroke-width:0.8;" x="46.965625" xlink:href="#m25b47c79a2" y="716.530447"/>
      </g>
     </g>
     <g id="text_19">
      <!-- 400 -->
      <g transform="translate(20.878125 720.329665)scale(0.1 -0.1)">
       <use xlink:href="#DejaVuSans-34"/>
       <use x="63.623047" xlink:href="#DejaVuSans-30"/>
       <use x="127.246094" xlink:href="#DejaVuSans-30"/>
      </g>
     </g>
    </g>
    <g id="ytick_24">
     <g id="line2d_53">
      <g>
       <use style="stroke:#000000;stroke-width:0.8;" x="46.965625" xlink:href="#m25b47c79a2" y="667.944107"/>
      </g>
     </g>
     <g id="text_20">
      <!-- 600 -->
      <g transform="translate(20.878125 671.743325)scale(0.1 -0.1)">
       <use xlink:href="#DejaVuSans-36"/>
       <use x="63.623047" xlink:href="#DejaVuSans-30"/>
       <use x="127.246094" xlink:href="#DejaVuSans-30"/>
      </g>
     </g>
    </g>
    <g id="ytick_25">
     <g id="line2d_54">
      <g>
       <use style="stroke:#000000;stroke-width:0.8;" x="46.965625" xlink:href="#m25b47c79a2" y="619.357767"/>
      </g>
     </g>
     <g id="text_21">
      <!-- 800 -->
      <g transform="translate(20.878125 623.156985)scale(0.1 -0.1)">
       <use xlink:href="#DejaVuSans-38"/>
       <use x="63.623047" xlink:href="#DejaVuSans-30"/>
       <use x="127.246094" xlink:href="#DejaVuSans-30"/>
      </g>
     </g>
    </g>
    <g id="text_22">
     <!-- Price -->
     <g transform="translate(14.798438 716.596094)rotate(-90)scale(0.1 -0.1)">
      <use xlink:href="#DejaVuSans-50"/>
      <use x="58.552734" xlink:href="#DejaVuSans-72"/>
      <use x="99.666016" xlink:href="#DejaVuSans-69"/>
      <use x="127.449219" xlink:href="#DejaVuSans-63"/>
      <use x="182.429688" xlink:href="#DejaVuSans-65"/>
     </g>
    </g>
   </g>
   <g id="line2d_55">
    <path clip-path="url(#p129217296d)" d="M 61.60142 801.571117 
L 61.602106 804.01501 
L 61.603477 799.156376 
L 61.663452 808.893079 
L 61.693268 796.940839 
L 61.696695 799.370156 
L 61.713488 798.155498 
L 61.74913 810.304512 
L 61.769007 809.089854 
L 61.832067 808.846922 
L 61.885187 811.883568 
L 61.98663 809.575717 
L 62.016104 810.06158 
L 62.053459 808.361058 
L 62.141537 806.417605 
L 62.689878 799.362868 
L 62.790293 801.571117 
L 62.892079 809.451822 
L 62.942115 806.417605 
L 63.030192 717.747534 
L 63.165221 799.129654 
L 63.168306 809.575717 
L 63.176531 803.988288 
L 63.614519 802.044834 
L 63.812607 803.988288 
L 63.846193 811.276239 
L 63.945237 789.412386 
L 64.204328 810.547444 
L 64.262247 810.06158 
L 64.341756 617.343863 
L 64.569318 759.288855 
L 64.787284 804.01501 
L 64.880844 799.370156 
L 65.250975 778.723391 
L 65.670799 801.799473 
L 66.37199 808.361058 
L 66.791128 807.632263 
L 66.968311 808.239593 
L 67.074552 804.474151 
L 67.126302 812.247966 
L 67.165371 799.85602 
L 67.216778 802.773629 
L 67.259275 806.417605 
L 67.275725 805.68881 
L 67.277096 801.801903 
L 67.990282 801.571117 
L 68.255542 806.429751 
L 68.276448 782.364937 
L 68.384403 804.474151 
L 68.410449 810.787946 
L 68.421758 801.571117 
L 68.563642 769.97785 
L 68.668169 808.846922 
L 69.16339 802.042405 
L 69.212398 802.042405 
L 69.574303 803.988288 
L 69.807348 802.285337 
L 70.446851 796.779695 
L 70.480437 806.417605 
L 70.530816 805.677473 
L 70.731304 807.156117 
L 71.13125 811.276239 
L 71.226524 812.257683 
L 71.485958 806.417605 
L 72.246782 784.609626 
L 72.573045 807.641981 
L 72.708759 808.846922 
L 75.883998 810.304512 
L 76.883008 799.129654 
L 78.462574 728.919963 
L 78.590748 801.571117 
L 78.676427 807.629834 
L 78.816596 810.554732 
L 79.423199 804.714654 
L 84.393228 812.733829 
L 84.512492 808.846922 
L 84.608794 807.632263 
L 84.812023 812.488468 
L 85.665722 807.225758 
L 90.445888 740.826046 
L 91.017534 808.846922 
L 91.535716 812.247966 
L 101.896968 810.059151 
L 141.392623 811.273809 
" style="fill:none;stroke:#9467bd;stroke-linecap:square;stroke-width:1.5;"/>
   </g>
   <g id="patch_15">
    <path d="M 46.965625 824.398438 
L 46.965625 584.398438 
" style="fill:none;stroke:#000000;stroke-linecap:square;stroke-linejoin:miter;stroke-width:0.8;"/>
   </g>
   <g id="patch_16">
    <path d="M 46.965625 824.398438 
L 368.953125 824.398438 
" style="fill:none;stroke:#000000;stroke-linecap:square;stroke-linejoin:miter;stroke-width:0.8;"/>
   </g>
   <g id="text_23">
    <!-- Category = Video Games -->
    <g transform="translate(144.664844 578.398438)scale(0.1 -0.1)">
     <defs>
      <path d="M 1831 0 
L 50 4666 
L 709 4666 
L 2188 738 
L 3669 4666 
L 4325 4666 
L 2547 0 
L 1831 0 
z
" id="DejaVuSans-56" transform="scale(0.015625)"/>
      <path d="M 3328 2828 
Q 3544 3216 3844 3400 
Q 4144 3584 4550 3584 
Q 5097 3584 5394 3201 
Q 5691 2819 5691 2113 
L 5691 0 
L 5113 0 
L 5113 2094 
Q 5113 2597 4934 2840 
Q 4756 3084 4391 3084 
Q 3944 3084 3684 2787 
Q 3425 2491 3425 1978 
L 3425 0 
L 2847 0 
L 2847 2094 
Q 2847 2600 2669 2842 
Q 2491 3084 2119 3084 
Q 1678 3084 1418 2786 
Q 1159 2488 1159 1978 
L 1159 0 
L 581 0 
L 581 3500 
L 1159 3500 
L 1159 2956 
Q 1356 3278 1631 3431 
Q 1906 3584 2284 3584 
Q 2666 3584 2933 3390 
Q 3200 3197 3328 2828 
z
" id="DejaVuSans-6d" transform="scale(0.015625)"/>
     </defs>
     <use xlink:href="#DejaVuSans-43"/>
     <use x="69.824219" xlink:href="#DejaVuSans-61"/>
     <use x="131.103516" xlink:href="#DejaVuSans-74"/>
     <use x="170.3125" xlink:href="#DejaVuSans-65"/>
     <use x="231.835938" xlink:href="#DejaVuSans-67"/>
     <use x="295.3125" xlink:href="#DejaVuSans-6f"/>
     <use x="356.494141" xlink:href="#DejaVuSans-72"/>
     <use x="397.607422" xlink:href="#DejaVuSans-79"/>
     <use x="456.787109" xlink:href="#DejaVuSans-20"/>
     <use x="488.574219" xlink:href="#DejaVuSans-3d"/>
     <use x="572.363281" xlink:href="#DejaVuSans-20"/>
     <use x="604.150391" xlink:href="#DejaVuSans-56"/>
     <use x="670.308594" xlink:href="#DejaVuSans-69"/>
     <use x="698.091797" xlink:href="#DejaVuSans-64"/>
     <use x="761.568359" xlink:href="#DejaVuSans-65"/>
     <use x="823.091797" xlink:href="#DejaVuSans-6f"/>
     <use x="884.273438" xlink:href="#DejaVuSans-20"/>
     <use x="916.060547" xlink:href="#DejaVuSans-47"/>
     <use x="993.550781" xlink:href="#DejaVuSans-61"/>
     <use x="1054.830078" xlink:href="#DejaVuSans-6d"/>
     <use x="1152.242188" xlink:href="#DejaVuSans-65"/>
     <use x="1213.765625" xlink:href="#DejaVuSans-73"/>
    </g>
   </g>
  </g>
  <g id="axes_6">
   <g id="patch_17">
    <path d="M 383.253125 824.398438 
L 705.240625 824.398438 
L 705.240625 584.398438 
L 383.253125 584.398438 
z
" style="fill:#ffffff;"/>
   </g>
   <g id="matplotlib.axis_11">
    <g id="xtick_26">
     <g id="line2d_56">
      <g>
       <use style="stroke:#000000;stroke-width:0.8;" x="397.888578" xlink:href="#m7b842ca2a7" y="824.398438"/>
      </g>
     </g>
     <g id="text_24">
      <!-- 0 -->
      <g transform="translate(394.707328 838.996875)scale(0.1 -0.1)">
       <use xlink:href="#DejaVuSans-30"/>
      </g>
     </g>
    </g>
    <g id="xtick_27">
     <g id="line2d_57">
      <g>
       <use style="stroke:#000000;stroke-width:0.8;" x="466.431243" xlink:href="#m7b842ca2a7" y="824.398438"/>
      </g>
     </g>
     <g id="text_25">
      <!-- 200000 -->
      <g transform="translate(447.343743 838.996875)scale(0.1 -0.1)">
       <use xlink:href="#DejaVuSans-32"/>
       <use x="63.623047" xlink:href="#DejaVuSans-30"/>
       <use x="127.246094" xlink:href="#DejaVuSans-30"/>
       <use x="190.869141" xlink:href="#DejaVuSans-30"/>
       <use x="254.492188" xlink:href="#DejaVuSans-30"/>
       <use x="318.115234" xlink:href="#DejaVuSans-30"/>
      </g>
     </g>
    </g>
    <g id="xtick_28">
     <g id="line2d_58">
      <g>
       <use style="stroke:#000000;stroke-width:0.8;" x="534.973909" xlink:href="#m7b842ca2a7" y="824.398438"/>
      </g>
     </g>
     <g id="text_26">
      <!-- 400000 -->
      <g transform="translate(515.886409 838.996875)scale(0.1 -0.1)">
       <use xlink:href="#DejaVuSans-34"/>
       <use x="63.623047" xlink:href="#DejaVuSans-30"/>
       <use x="127.246094" xlink:href="#DejaVuSans-30"/>
       <use x="190.869141" xlink:href="#DejaVuSans-30"/>
       <use x="254.492188" xlink:href="#DejaVuSans-30"/>
       <use x="318.115234" xlink:href="#DejaVuSans-30"/>
      </g>
     </g>
    </g>
    <g id="xtick_29">
     <g id="line2d_59">
      <g>
       <use style="stroke:#000000;stroke-width:0.8;" x="603.516575" xlink:href="#m7b842ca2a7" y="824.398438"/>
      </g>
     </g>
     <g id="text_27">
      <!-- 600000 -->
      <g transform="translate(584.429075 838.996875)scale(0.1 -0.1)">
       <use xlink:href="#DejaVuSans-36"/>
       <use x="63.623047" xlink:href="#DejaVuSans-30"/>
       <use x="127.246094" xlink:href="#DejaVuSans-30"/>
       <use x="190.869141" xlink:href="#DejaVuSans-30"/>
       <use x="254.492188" xlink:href="#DejaVuSans-30"/>
       <use x="318.115234" xlink:href="#DejaVuSans-30"/>
      </g>
     </g>
    </g>
    <g id="xtick_30">
     <g id="line2d_60">
      <g>
       <use style="stroke:#000000;stroke-width:0.8;" x="672.05924" xlink:href="#m7b842ca2a7" y="824.398438"/>
      </g>
     </g>
     <g id="text_28">
      <!-- 800000 -->
      <g transform="translate(652.97174 838.996875)scale(0.1 -0.1)">
       <use xlink:href="#DejaVuSans-38"/>
       <use x="63.623047" xlink:href="#DejaVuSans-30"/>
       <use x="127.246094" xlink:href="#DejaVuSans-30"/>
       <use x="190.869141" xlink:href="#DejaVuSans-30"/>
       <use x="254.492188" xlink:href="#DejaVuSans-30"/>
       <use x="318.115234" xlink:href="#DejaVuSans-30"/>
      </g>
     </g>
    </g>
    <g id="text_29">
     <!-- Reviews -->
     <g transform="translate(523.802344 852.675)scale(0.1 -0.1)">
      <defs>
       <path d="M 2841 2188 
Q 3044 2119 3236 1894 
Q 3428 1669 3622 1275 
L 4263 0 
L 3584 0 
L 2988 1197 
Q 2756 1666 2539 1819 
Q 2322 1972 1947 1972 
L 1259 1972 
L 1259 0 
L 628 0 
L 628 4666 
L 2053 4666 
Q 2853 4666 3247 4331 
Q 3641 3997 3641 3322 
Q 3641 2881 3436 2590 
Q 3231 2300 2841 2188 
z
M 1259 4147 
L 1259 2491 
L 2053 2491 
Q 2509 2491 2742 2702 
Q 2975 2913 2975 3322 
Q 2975 3731 2742 3939 
Q 2509 4147 2053 4147 
L 1259 4147 
z
" id="DejaVuSans-52" transform="scale(0.015625)"/>
       <path d="M 191 3500 
L 800 3500 
L 1894 563 
L 2988 3500 
L 3597 3500 
L 2284 0 
L 1503 0 
L 191 3500 
z
" id="DejaVuSans-76" transform="scale(0.015625)"/>
      </defs>
      <use xlink:href="#DejaVuSans-52"/>
      <use x="64.982422" xlink:href="#DejaVuSans-65"/>
      <use x="126.505859" xlink:href="#DejaVuSans-76"/>
      <use x="185.685547" xlink:href="#DejaVuSans-69"/>
      <use x="213.46875" xlink:href="#DejaVuSans-65"/>
      <use x="274.992188" xlink:href="#DejaVuSans-77"/>
      <use x="356.779297" xlink:href="#DejaVuSans-73"/>
     </g>
    </g>
   </g>
   <g id="matplotlib.axis_12">
    <g id="ytick_26">
     <g id="line2d_61">
      <g>
       <use style="stroke:#000000;stroke-width:0.8;" x="383.253125" xlink:href="#m25b47c79a2" y="813.703126"/>
      </g>
     </g>
    </g>
    <g id="ytick_27">
     <g id="line2d_62">
      <g>
       <use style="stroke:#000000;stroke-width:0.8;" x="383.253125" xlink:href="#m25b47c79a2" y="765.116787"/>
      </g>
     </g>
    </g>
    <g id="ytick_28">
     <g id="line2d_63">
      <g>
       <use style="stroke:#000000;stroke-width:0.8;" x="383.253125" xlink:href="#m25b47c79a2" y="716.530447"/>
      </g>
     </g>
    </g>
    <g id="ytick_29">
     <g id="line2d_64">
      <g>
       <use style="stroke:#000000;stroke-width:0.8;" x="383.253125" xlink:href="#m25b47c79a2" y="667.944107"/>
      </g>
     </g>
    </g>
    <g id="ytick_30">
     <g id="line2d_65">
      <g>
       <use style="stroke:#000000;stroke-width:0.8;" x="383.253125" xlink:href="#m25b47c79a2" y="619.357767"/>
      </g>
     </g>
    </g>
   </g>
   <g id="line2d_66">
    <path clip-path="url(#p2c2e22093d)" d="M 397.889949 811.278668 
L 397.893033 806.903468 
L 397.896117 803.988288 
L 397.897488 807.226567 
L 397.900573 803.988288 
L 397.901944 808.846922 
L 397.921478 806.417605 
L 397.949581 792.325137 
L 397.949923 806.417605 
L 397.961233 802.545274 
L 397.971172 806.417605 
L 397.981796 806.417605 
L 398.033203 802.287766 
L 398.036973 810.792805 
L 398.039029 801.801903 
L 398.057193 802.287766 
L 398.096605 807.875195 
L 398.159321 800.344312 
L 398.183311 778.47803 
L 398.188109 794.27102 
L 398.19325 801.073107 
L 398.209015 794.27102 
L 398.219296 799.129654 
L 398.246713 805.202946 
L 398.257337 802.044834 
L 398.271046 792.084635 
L 398.307031 807.1464 
L 398.337875 803.988288 
L 398.350555 806.417605 
L 398.429379 800.830176 
L 398.435206 803.988288 
L 398.453369 802.044834 
L 398.457825 789.412386 
L 398.562352 811.640636 
L 398.569206 804.960015 
L 398.60245 806.417605 
L 398.640148 806.660537 
L 398.658312 789.412386 
L 398.682645 784.553752 
L 398.713831 801.558971 
L 398.753586 802.528268 
L 398.787172 796.700337 
L 398.890672 806.417605 
L 398.895812 800.35403 
L 398.917746 803.988288 
L 398.921173 774.836484 
L 398.944135 785.083343 
L 398.968125 807.632263 
L 398.968467 805.931741 
L 398.991429 809.818649 
L 398.998283 805.202946 
L 399.091159 803.988288 
L 399.099727 801.558971 
L 399.143594 807.632263 
L 399.188489 796.700337 
L 399.191231 779.93562 
L 399.20494 803.990717 
L 399.238868 793.056361 
L 399.290961 803.502424 
L 399.343396 807.389332 
L 399.406455 808.361058 
L 399.45889 809.332785 
L 399.533602 805.445878 
L 399.566159 789.412386 
L 399.622364 806.417605 
L 399.626134 802.530698 
L 399.642242 804.960015 
L 399.656636 783.824957 
L 399.671715 801.073107 
L 399.781041 802.287766 
L 399.817711 805.202946 
L 399.947599 806.417605 
L 399.985298 789.412386 
L 400.049728 806.417605 
L 400.153227 808.846922 
L 400.166251 800.830176 
L 400.22177 796.700337 
L 400.502795 808.118127 
L 400.514447 803.988288 
L 400.527128 790.262647 
L 400.753661 796.97485 
L 400.810894 804.717083 
L 401.250595 807.389332 
L 401.411671 803.988288 
L 401.453824 801.558971 
L 401.497349 807.1464 
L 401.546014 783.686486 
L 401.766036 807.661415 
L 402.107036 804.960015 
L 402.118346 801.558971 
L 402.700958 804.262801 
L 403.488514 803.988288 
L 404.929966 806.417605 
L 405.112975 789.412386 
L 405.693874 805.445878 
L 408.871169 789.412386 
L 412.298645 803.988288 
L 414.083153 808.239593 
L 420.980259 804.476581 
L 436.152521 805.202946 
" style="fill:none;stroke:#8c564b;stroke-linecap:square;stroke-width:1.5;"/>
   </g>
   <g id="patch_18">
    <path d="M 383.253125 824.398438 
L 383.253125 584.398438 
" style="fill:none;stroke:#000000;stroke-linecap:square;stroke-linejoin:miter;stroke-width:0.8;"/>
   </g>
   <g id="patch_19">
    <path d="M 383.253125 824.398438 
L 705.240625 824.398438 
" style="fill:none;stroke:#000000;stroke-linecap:square;stroke-linejoin:miter;stroke-width:0.8;"/>
   </g>
   <g id="text_30">
    <!-- Category = Camera &amp; Photo -->
    <g transform="translate(473.076563 578.398438)scale(0.1 -0.1)">
     <use xlink:href="#DejaVuSans-43"/>
     <use x="69.824219" xlink:href="#DejaVuSans-61"/>
     <use x="131.103516" xlink:href="#DejaVuSans-74"/>
     <use x="170.3125" xlink:href="#DejaVuSans-65"/>
     <use x="231.835938" xlink:href="#DejaVuSans-67"/>
     <use x="295.3125" xlink:href="#DejaVuSans-6f"/>
     <use x="356.494141" xlink:href="#DejaVuSans-72"/>
     <use x="397.607422" xlink:href="#DejaVuSans-79"/>
     <use x="456.787109" xlink:href="#DejaVuSans-20"/>
     <use x="488.574219" xlink:href="#DejaVuSans-3d"/>
     <use x="572.363281" xlink:href="#DejaVuSans-20"/>
     <use x="604.150391" xlink:href="#DejaVuSans-43"/>
     <use x="673.974609" xlink:href="#DejaVuSans-61"/>
     <use x="735.253906" xlink:href="#DejaVuSans-6d"/>
     <use x="832.666016" xlink:href="#DejaVuSans-65"/>
     <use x="894.189453" xlink:href="#DejaVuSans-72"/>
     <use x="935.302734" xlink:href="#DejaVuSans-61"/>
     <use x="996.582031" xlink:href="#DejaVuSans-20"/>
     <use x="1028.369141" xlink:href="#DejaVuSans-26"/>
     <use x="1106.347656" xlink:href="#DejaVuSans-20"/>
     <use x="1138.134766" xlink:href="#DejaVuSans-50"/>
     <use x="1198.4375" xlink:href="#DejaVuSans-68"/>
     <use x="1261.816406" xlink:href="#DejaVuSans-6f"/>
     <use x="1322.998047" xlink:href="#DejaVuSans-74"/>
     <use x="1362.207031" xlink:href="#DejaVuSans-6f"/>
    </g>
   </g>
  </g>
  <g id="axes_7">
   <g id="patch_20">
    <path d="M 46.965625 1106.198437 
L 368.953125 1106.198437 
L 368.953125 866.198438 
L 46.965625 866.198438 
z
" style="fill:#ffffff;"/>
   </g>
   <g id="matplotlib.axis_13">
    <g id="xtick_31">
     <g id="line2d_67">
      <g>
       <use style="stroke:#000000;stroke-width:0.8;" x="61.601078" xlink:href="#m7b842ca2a7" y="1106.198437"/>
      </g>
     </g>
     <g id="text_31">
      <!-- 0 -->
      <g transform="translate(58.419828 1120.796875)scale(0.1 -0.1)">
       <use xlink:href="#DejaVuSans-30"/>
      </g>
     </g>
    </g>
    <g id="xtick_32">
     <g id="line2d_68">
      <g>
       <use style="stroke:#000000;stroke-width:0.8;" x="130.143743" xlink:href="#m7b842ca2a7" y="1106.198437"/>
      </g>
     </g>
     <g id="text_32">
      <!-- 200000 -->
      <g transform="translate(111.056243 1120.796875)scale(0.1 -0.1)">
       <use xlink:href="#DejaVuSans-32"/>
       <use x="63.623047" xlink:href="#DejaVuSans-30"/>
       <use x="127.246094" xlink:href="#DejaVuSans-30"/>
       <use x="190.869141" xlink:href="#DejaVuSans-30"/>
       <use x="254.492188" xlink:href="#DejaVuSans-30"/>
       <use x="318.115234" xlink:href="#DejaVuSans-30"/>
      </g>
     </g>
    </g>
    <g id="xtick_33">
     <g id="line2d_69">
      <g>
       <use style="stroke:#000000;stroke-width:0.8;" x="198.686409" xlink:href="#m7b842ca2a7" y="1106.198437"/>
      </g>
     </g>
     <g id="text_33">
      <!-- 400000 -->
      <g transform="translate(179.598909 1120.796875)scale(0.1 -0.1)">
       <use xlink:href="#DejaVuSans-34"/>
       <use x="63.623047" xlink:href="#DejaVuSans-30"/>
       <use x="127.246094" xlink:href="#DejaVuSans-30"/>
       <use x="190.869141" xlink:href="#DejaVuSans-30"/>
       <use x="254.492188" xlink:href="#DejaVuSans-30"/>
       <use x="318.115234" xlink:href="#DejaVuSans-30"/>
      </g>
     </g>
    </g>
    <g id="xtick_34">
     <g id="line2d_70">
      <g>
       <use style="stroke:#000000;stroke-width:0.8;" x="267.229075" xlink:href="#m7b842ca2a7" y="1106.198437"/>
      </g>
     </g>
     <g id="text_34">
      <!-- 600000 -->
      <g transform="translate(248.141575 1120.796875)scale(0.1 -0.1)">
       <use xlink:href="#DejaVuSans-36"/>
       <use x="63.623047" xlink:href="#DejaVuSans-30"/>
       <use x="127.246094" xlink:href="#DejaVuSans-30"/>
       <use x="190.869141" xlink:href="#DejaVuSans-30"/>
       <use x="254.492188" xlink:href="#DejaVuSans-30"/>
       <use x="318.115234" xlink:href="#DejaVuSans-30"/>
      </g>
     </g>
    </g>
    <g id="xtick_35">
     <g id="line2d_71">
      <g>
       <use style="stroke:#000000;stroke-width:0.8;" x="335.77174" xlink:href="#m7b842ca2a7" y="1106.198437"/>
      </g>
     </g>
     <g id="text_35">
      <!-- 800000 -->
      <g transform="translate(316.68424 1120.796875)scale(0.1 -0.1)">
       <use xlink:href="#DejaVuSans-38"/>
       <use x="63.623047" xlink:href="#DejaVuSans-30"/>
       <use x="127.246094" xlink:href="#DejaVuSans-30"/>
       <use x="190.869141" xlink:href="#DejaVuSans-30"/>
       <use x="254.492188" xlink:href="#DejaVuSans-30"/>
       <use x="318.115234" xlink:href="#DejaVuSans-30"/>
      </g>
     </g>
    </g>
    <g id="text_36">
     <!-- Reviews -->
     <g transform="translate(187.514844 1134.475)scale(0.1 -0.1)">
      <use xlink:href="#DejaVuSans-52"/>
      <use x="64.982422" xlink:href="#DejaVuSans-65"/>
      <use x="126.505859" xlink:href="#DejaVuSans-76"/>
      <use x="185.685547" xlink:href="#DejaVuSans-69"/>
      <use x="213.46875" xlink:href="#DejaVuSans-65"/>
      <use x="274.992188" xlink:href="#DejaVuSans-77"/>
      <use x="356.779297" xlink:href="#DejaVuSans-73"/>
     </g>
    </g>
   </g>
   <g id="matplotlib.axis_14">
    <g id="ytick_31">
     <g id="line2d_72">
      <g>
       <use style="stroke:#000000;stroke-width:0.8;" x="46.965625" xlink:href="#m25b47c79a2" y="1095.503126"/>
      </g>
     </g>
     <g id="text_37">
      <!-- 0 -->
      <g transform="translate(33.603125 1099.302345)scale(0.1 -0.1)">
       <use xlink:href="#DejaVuSans-30"/>
      </g>
     </g>
    </g>
    <g id="ytick_32">
     <g id="line2d_73">
      <g>
       <use style="stroke:#000000;stroke-width:0.8;" x="46.965625" xlink:href="#m25b47c79a2" y="1046.916787"/>
      </g>
     </g>
     <g id="text_38">
      <!-- 200 -->
      <g transform="translate(20.878125 1050.716005)scale(0.1 -0.1)">
       <use xlink:href="#DejaVuSans-32"/>
       <use x="63.623047" xlink:href="#DejaVuSans-30"/>
       <use x="127.246094" xlink:href="#DejaVuSans-30"/>
      </g>
     </g>
    </g>
    <g id="ytick_33">
     <g id="line2d_74">
      <g>
       <use style="stroke:#000000;stroke-width:0.8;" x="46.965625" xlink:href="#m25b47c79a2" y="998.330447"/>
      </g>
     </g>
     <g id="text_39">
      <!-- 400 -->
      <g transform="translate(20.878125 1002.129665)scale(0.1 -0.1)">
       <use xlink:href="#DejaVuSans-34"/>
       <use x="63.623047" xlink:href="#DejaVuSans-30"/>
       <use x="127.246094" xlink:href="#DejaVuSans-30"/>
      </g>
     </g>
    </g>
    <g id="ytick_34">
     <g id="line2d_75">
      <g>
       <use style="stroke:#000000;stroke-width:0.8;" x="46.965625" xlink:href="#m25b47c79a2" y="949.744107"/>
      </g>
     </g>
     <g id="text_40">
      <!-- 600 -->
      <g transform="translate(20.878125 953.543325)scale(0.1 -0.1)">
       <use xlink:href="#DejaVuSans-36"/>
       <use x="63.623047" xlink:href="#DejaVuSans-30"/>
       <use x="127.246094" xlink:href="#DejaVuSans-30"/>
      </g>
     </g>
    </g>
    <g id="ytick_35">
     <g id="line2d_76">
      <g>
       <use style="stroke:#000000;stroke-width:0.8;" x="46.965625" xlink:href="#m25b47c79a2" y="901.157767"/>
      </g>
     </g>
     <g id="text_41">
      <!-- 800 -->
      <g transform="translate(20.878125 904.956985)scale(0.1 -0.1)">
       <use xlink:href="#DejaVuSans-38"/>
       <use x="63.623047" xlink:href="#DejaVuSans-30"/>
       <use x="127.246094" xlink:href="#DejaVuSans-30"/>
      </g>
     </g>
    </g>
    <g id="text_42">
     <!-- Price -->
     <g transform="translate(14.798438 998.396094)rotate(-90)scale(0.1 -0.1)">
      <use xlink:href="#DejaVuSans-50"/>
      <use x="58.552734" xlink:href="#DejaVuSans-72"/>
      <use x="99.666016" xlink:href="#DejaVuSans-69"/>
      <use x="127.449219" xlink:href="#DejaVuSans-63"/>
      <use x="182.429688" xlink:href="#DejaVuSans-65"/>
     </g>
    </g>
   </g>
   <g id="line2d_77">
    <path clip-path="url(#p999a9046a7)" d="M 61.619584 1093.319171 
L 61.661053 1093.562102 
L 61.696009 1094.533829 
L 61.719657 1093.076239 
L 61.823499 1091.375717 
L 61.871821 1068.221897 
L 61.886558 1087.493668 
L 61.951331 1093.076239 
L 61.954072 1094.193725 
L 61.974293 1094.5314 
L 62.064769 1094.776761 
L 62.138452 1093.319171 
L 62.226187 1090.646922 
L 62.348193 1089.432263 
L 62.396173 1087.002946 
L 62.43627 1090.889854 
L 62.493846 1091.859151 
L 62.601115 1092.347444 
L 62.62956 1092.833307 
L 62.6371 1089.432263 
L 62.646696 1094.485243 
L 63.423285 1089.169897 
L 63.4555 1089.675195 
L 63.543234 1094.786478 
L 63.64125 1088.217605 
L 63.710821 1092.590375 
L 63.742008 1093.999379 
L 64.250594 1089.429834 
L 64.486381 1088.217605 
L 64.594336 1091.239675 
L 64.615241 1093.805034 
L 64.726966 1093.319171 
L 64.786941 1092.833307 
L 64.843489 1081.658449 
L 65.076191 1089.675195 
L 65.145419 1083.116039 
L 65.206765 1090.717372 
L 65.334939 1092.46891 
L 65.355502 1078.500337 
L 65.402454 1095.289347 
L 65.656405 1094.290897 
L 65.695474 1092.843024 
L 65.760589 1088.703468 
L 66.022765 1089.432263 
L 66.38467 1092.35959 
L 66.472062 1090.40399 
L 66.587899 1093.754018 
L 66.643419 1091.132785 
L 66.695854 1090.114901 
L 66.802781 1093.805034 
L 66.944664 1093.319171 
L 67.029314 1089.672766 
L 67.040281 1093.076239 
L 67.247965 1093.083527 
L 67.44811 1092.687548 
L 67.611241 1091.871298 
L 67.711314 1092.517496 
L 67.712685 1092.106941 
L 67.7778 1090.646922 
L 67.923796 1090.646922 
L 67.991653 1093.078668 
L 68.380976 1089.701917 
L 68.574951 1092.714271 
L 68.592087 1092.104512 
L 68.8666 1091.86158 
L 68.880652 1094.050395 
L 68.947138 1094.047966 
L 69.004714 1093.562102 
L 69.065717 1089.458986 
L 69.141114 1092.347444 
L 69.272716 1091.866439 
L 69.377243 1093.319171 
L 69.4122 1089.675195 
L 70.060956 1093.324029 
L 70.200098 1082.144312 
L 70.237796 1093.076239 
L 70.257674 1094.290897 
L 70.840972 1087.002946 
L 71.022267 1093.831756 
L 71.211102 1092.833307 
L 71.430439 1089.918127 
L 72.337601 1091.859151 
L 72.358849 1093.076239 
L 72.652212 1093.562102 
L 73.159427 1093.600971 
L 74.723571 1093.705432 
L 75.269171 1091.876156 
L 77.035172 1093.829327 
L 77.246284 1093.076239 
L 77.660624 1094.290897 
L 79.249443 1093.440636 
L 80.586711 1086.274151 
L 83.493262 1094.290897 
L 85.581072 1092.442187 
L 98.555513 1089.429834 
" style="fill:none;stroke:#e377c2;stroke-linecap:square;stroke-width:1.5;"/>
   </g>
   <g id="patch_21">
    <path d="M 46.965625 1106.198437 
L 46.965625 866.198438 
" style="fill:none;stroke:#000000;stroke-linecap:square;stroke-linejoin:miter;stroke-width:0.8;"/>
   </g>
   <g id="patch_22">
    <path d="M 46.965625 1106.198437 
L 368.953125 1106.198437 
" style="fill:none;stroke:#000000;stroke-linecap:square;stroke-linejoin:miter;stroke-width:0.8;"/>
   </g>
   <g id="text_43">
    <!-- Category = Toys &amp; Games -->
    <g transform="translate(142.35625 860.198438)scale(0.1 -0.1)">
     <defs>
      <path d="M -19 4666 
L 3928 4666 
L 3928 4134 
L 2272 4134 
L 2272 0 
L 1638 0 
L 1638 4134 
L -19 4134 
L -19 4666 
z
" id="DejaVuSans-54" transform="scale(0.015625)"/>
     </defs>
     <use xlink:href="#DejaVuSans-43"/>
     <use x="69.824219" xlink:href="#DejaVuSans-61"/>
     <use x="131.103516" xlink:href="#DejaVuSans-74"/>
     <use x="170.3125" xlink:href="#DejaVuSans-65"/>
     <use x="231.835938" xlink:href="#DejaVuSans-67"/>
     <use x="295.3125" xlink:href="#DejaVuSans-6f"/>
     <use x="356.494141" xlink:href="#DejaVuSans-72"/>
     <use x="397.607422" xlink:href="#DejaVuSans-79"/>
     <use x="456.787109" xlink:href="#DejaVuSans-20"/>
     <use x="488.574219" xlink:href="#DejaVuSans-3d"/>
     <use x="572.363281" xlink:href="#DejaVuSans-20"/>
     <use x="604.150391" xlink:href="#DejaVuSans-54"/>
     <use x="648.234375" xlink:href="#DejaVuSans-6f"/>
     <use x="709.416016" xlink:href="#DejaVuSans-79"/>
     <use x="768.595703" xlink:href="#DejaVuSans-73"/>
     <use x="820.695312" xlink:href="#DejaVuSans-20"/>
     <use x="852.482422" xlink:href="#DejaVuSans-26"/>
     <use x="930.460938" xlink:href="#DejaVuSans-20"/>
     <use x="962.248047" xlink:href="#DejaVuSans-47"/>
     <use x="1039.738281" xlink:href="#DejaVuSans-61"/>
     <use x="1101.017578" xlink:href="#DejaVuSans-6d"/>
     <use x="1198.429688" xlink:href="#DejaVuSans-65"/>
     <use x="1259.953125" xlink:href="#DejaVuSans-73"/>
    </g>
   </g>
  </g>
 </g>
 <defs>
  <clipPath id="p1de823ccca">
   <rect height="240" width="321.9875" x="46.965625" y="20.798438"/>
  </clipPath>
  <clipPath id="pd77ec2ca73">
   <rect height="240" width="321.9875" x="383.253125" y="20.798438"/>
  </clipPath>
  <clipPath id="p01104fefe4">
   <rect height="240" width="321.9875" x="46.965625" y="302.598437"/>
  </clipPath>
  <clipPath id="p7ede1bca0d">
   <rect height="240" width="321.9875" x="383.253125" y="302.598437"/>
  </clipPath>
  <clipPath id="p129217296d">
   <rect height="240" width="321.9875" x="46.965625" y="584.398438"/>
  </clipPath>
  <clipPath id="p2c2e22093d">
   <rect height="240" width="321.9875" x="383.253125" y="584.398438"/>
  </clipPath>
  <clipPath id="p999a9046a7">
   <rect height="240" width="321.9875" x="46.965625" y="866.198438"/>
  </clipPath>
 </defs>
</svg>
